<svg width="814" height="710" viewBox="0 0 814 710" fill="none" xmlns="http://www.w3.org/2000/svg">
<g filter="url(#filter0_d_223_126)">
<path d="M381.711 65.2985L393.493 86.553L382.673 106.028C382.155 106.958 381.883 108.005 381.883 109.07C381.883 110.134 382.155 111.181 382.673 112.111L393.493 131.635L381.711 152.889C379.494 151.79 377.654 150.058 376.422 147.912L357.668 115.333C356.575 113.431 356 111.276 356 109.082C356 106.888 356.575 104.733 357.668 102.831L376.422 70.2515C377.657 68.1145 379.498 66.3911 381.711 65.2985V65.2985Z" fill="url(#paint0_linear_223_126)"/>
<path opacity="0.7" d="M382.673 106.052C382.159 106.979 381.89 108.022 381.89 109.082C381.89 110.142 382.159 111.184 382.673 112.111L393.493 131.635L381.711 152.889C379.494 151.79 377.653 150.058 376.422 147.912L357.668 115.333C356.177 112.761 364.52 109.683 382.673 106.076V106.052Z" fill="url(#paint1_linear_223_126)"/>
<path opacity="0.5" d="M382.914 67.4383L393.493 86.553L391.738 89.6066L382.409 73.8099C379.716 69.4099 375.604 71.6941 370.459 80.5902L371.228 79.2678L376.422 70.2515C377.645 68.1215 379.468 66.3988 381.663 65.2985L382.89 67.4383H382.914Z" fill="url(#paint2_linear_223_126)"/>
<path d="M435.569 70.2513L454.323 102.83C456.559 106.677 456.559 111.486 454.323 115.333L435.569 147.912C434.472 149.812 432.895 151.389 430.996 152.487C429.097 153.584 426.942 154.162 424.749 154.164H405.995L429.317 112.111C429.831 111.184 430.101 110.142 430.101 109.082C430.101 108.022 429.831 106.979 429.317 106.052L405.995 64H424.749C426.942 64.0014 429.097 64.5798 430.996 65.677C432.895 66.7743 434.472 68.3519 435.569 70.2513V70.2513Z" fill="url(#paint3_linear_223_126)"/>
<path d="M423.788 154.019L405.274 154.188L427.683 111.919C428.184 110.979 428.446 109.93 428.446 108.865C428.446 107.8 428.184 106.752 427.683 105.812L405.274 64H409.506L433.02 105.62C433.578 106.603 433.868 107.714 433.864 108.845C433.86 109.975 433.561 111.084 432.996 112.063C427.935 120.859 422.91 129.675 417.921 138.511C413.353 146.542 415.324 151.711 423.788 154.019V154.019Z" fill="url(#paint4_linear_223_126)"/>
<path d="M387.241 154.164C385.318 154.164 383.394 153.707 381.711 152.889L404.841 111.174C405.563 109.875 405.563 108.288 404.841 106.99L381.711 65.2984C383.431 64.447 385.323 64.0028 387.241 64H405.996L429.318 106.052C429.831 106.979 430.101 108.022 430.101 109.082C430.101 110.142 429.831 111.184 429.318 112.111L405.996 154.164H387.241Z" fill="url(#paint5_linear_223_126)"/>
<path opacity="0.6" d="M427.683 106.99L403.832 64H405.995L429.318 106.052C429.831 106.979 430.101 108.022 430.101 109.082C430.101 110.142 429.831 111.184 429.318 112.111L405.995 154.164H403.832L427.683 111.174C428.404 109.875 428.404 108.288 427.683 106.99V106.99Z" fill="url(#paint6_linear_223_126)"/>
<path opacity="0.6" d="M404.841 106.99L381.711 65.2984C382.433 64.9137 383.298 64.6252 384.116 64.3848C389.213 73.5454 396.739 87.4426 406.717 106.052C407.23 106.98 407.5 108.022 407.5 109.082C407.5 110.142 407.23 111.184 406.717 112.111L383.755 153.683C382.938 153.442 382.505 153.274 381.735 152.913L404.817 111.198C405.539 109.899 405.539 108.313 404.817 107.014L404.841 106.99Z" fill="url(#paint7_linear_223_126)"/>
</g>
<g filter="url(#filter1_d_223_126)">
<path d="M406.931 638.935C411.35 638.935 414.932 635.382 414.932 631C414.932 626.618 411.35 623.065 406.931 623.065C402.513 623.065 398.931 626.618 398.931 631C398.931 635.382 402.513 638.935 406.931 638.935Z" fill="#61DAFB"/>
<path d="M406.931 647.256C430.642 647.256 449.863 639.978 449.863 631C449.863 622.022 430.642 614.744 406.931 614.744C383.221 614.744 364 622.022 364 631C364 639.978 383.221 647.256 406.931 647.256Z" stroke="#61DAFB"/>
<path d="M392.736 639.128C404.591 659.492 420.557 672.361 428.397 667.872C436.237 663.383 432.982 643.236 421.127 622.872C409.272 602.508 393.306 589.639 385.466 594.128C377.626 598.617 380.88 618.764 392.736 639.128Z" stroke="#61DAFB"/>
<path d="M392.735 622.872C380.88 643.236 377.626 663.383 385.466 667.872C393.306 672.361 409.272 659.492 421.127 639.128C432.982 618.764 436.237 598.617 428.397 594.128C420.557 589.639 404.591 602.508 392.735 622.872Z" stroke="#61DAFB"/>
</g>
<g filter="url(#filter2_d_223_126)">
<path d="M670.379 371.376C670.048 371.846 669.769 372.233 669.501 372.624C665.219 378.918 660.939 385.212 656.661 391.505C652.68 397.359 648.696 403.209 644.707 409.056C644.641 409.148 644.556 409.225 644.459 409.281C644.361 409.338 644.252 409.374 644.139 409.386C638.508 409.338 632.878 409.277 627.25 409.203C627.187 409.203 627.123 409.185 627 409.166C627.045 409.048 627.098 408.934 627.158 408.823C631.086 402.741 635.013 396.66 638.941 390.58C642.424 385.192 645.91 379.805 649.398 374.42C653.263 368.436 657.126 362.447 660.987 356.455C661.557 355.571 662.15 354.705 662.691 353.805C662.83 353.564 662.872 353.279 662.808 353.008C661.768 349.695 660.706 346.39 659.647 343.084C659.193 341.669 658.719 340.261 658.294 338.837C658.157 338.38 657.93 338.241 657.462 338.243C653.924 338.257 650.407 338.253 646.88 338.253C646.21 338.253 646.208 338.253 646.208 337.592C646.208 333.26 646.208 328.928 646.195 324.596C646.195 324.114 646.353 324.006 646.807 324.006C653.909 324.018 661.012 324.018 668.117 324.006C668.282 323.984 668.449 324.024 668.587 324.117C668.724 324.21 668.824 324.35 668.866 324.511C672.612 333.922 676.358 343.33 680.103 352.734C684.473 363.702 688.844 374.67 693.214 385.641C694.571 389.046 695.938 392.449 697.28 395.862C697.44 396.278 697.607 396.357 698.027 396.228C701.75 395.078 705.481 393.96 709.202 392.808C709.67 392.663 709.841 392.76 709.987 393.224C711.256 397.209 712.551 401.186 713.837 405.167C713.88 405.304 713.914 405.443 713.966 405.634C713.699 405.732 713.45 405.842 713.194 405.913C704.731 408.592 696.273 411.272 687.82 413.953C687.416 414.08 687.295 413.943 687.16 413.604C684.578 407.069 681.99 400.536 679.396 394.006C676.858 387.611 674.32 381.217 671.779 374.823C671.398 373.862 671.024 372.898 670.643 371.938C670.583 371.773 670.499 371.63 670.379 371.376V371.376Z" fill="#FA7E14"/>
</g>
<g filter="url(#filter3_d_223_126)">
<path d="M165.226 357.232L165.193 357.218C165.174 357.211 165.155 357.204 165.139 357.188C165.084 357.129 165.06 357.048 165.073 356.969L166.89 345.876L175.408 354.388L166.549 358.152C166.524 358.162 166.498 358.167 166.471 358.167H166.436C166.424 358.16 166.413 358.15 166.389 358.127C166.059 357.76 165.665 357.457 165.226 357.232ZM177.581 356.556L186.689 365.654C188.581 367.546 189.528 368.49 189.873 369.583C189.925 369.745 189.967 369.907 190 370.074L168.234 360.866C168.222 360.861 168.21 360.856 168.198 360.852C168.112 360.817 168.01 360.777 168.01 360.687C168.01 360.598 168.114 360.556 168.201 360.521L168.229 360.509L177.581 356.556ZM189.629 372.994C189.159 373.877 188.242 374.792 186.691 376.343L176.423 386.598L163.142 383.836L163.071 383.822C162.954 383.803 162.829 383.782 162.829 383.676C162.727 382.57 162.17 381.556 161.29 380.876C161.236 380.822 161.25 380.737 161.267 380.66C161.267 380.648 161.267 380.637 161.271 380.627L163.769 365.309L163.778 365.258C163.793 365.14 163.814 365.004 163.919 365.004C165.001 364.87 165.983 364.307 166.645 363.443C166.666 363.42 166.681 363.394 166.709 363.38C166.784 363.345 166.873 363.38 166.951 363.413L189.626 372.994H189.629ZM174.061 388.957L157.176 405.825L160.066 388.08L160.07 388.056C160.073 388.033 160.078 388.009 160.085 387.988C160.108 387.932 160.169 387.908 160.228 387.885L160.256 387.873C160.889 387.603 161.449 387.187 161.889 386.66C161.946 386.594 162.014 386.53 162.101 386.519C162.123 386.515 162.146 386.515 162.169 386.519L174.059 388.96L174.061 388.957ZM153.601 409.395L151.698 411.296L130.656 380.918C130.648 380.907 130.64 380.896 130.632 380.885C130.599 380.841 130.564 380.796 130.571 380.745C130.573 380.707 130.597 380.674 130.623 380.646L130.646 380.615C130.71 380.522 130.764 380.428 130.822 380.327L130.869 380.245L130.876 380.238C130.909 380.181 130.94 380.127 130.996 380.097C131.046 380.073 131.114 380.083 131.168 380.094L154.48 384.897C154.545 384.907 154.607 384.934 154.659 384.974C154.689 385.005 154.696 385.038 154.704 385.075C155.033 386.321 155.927 387.341 157.119 387.833C157.185 387.866 157.157 387.939 157.126 388.016C157.111 388.05 157.099 388.086 157.091 388.122C156.797 389.906 154.278 405.252 153.601 409.395ZM149.626 413.364C148.223 414.751 147.396 415.486 146.46 415.782C145.538 416.073 144.549 416.073 143.627 415.782C142.532 415.434 141.585 414.491 139.693 412.599L118.561 391.49L124.081 382.939C124.107 382.897 124.133 382.859 124.175 382.829C124.234 382.787 124.318 382.805 124.389 382.829C125.656 383.211 127.016 383.142 128.238 382.634C128.301 382.611 128.365 382.594 128.414 382.639C128.439 382.661 128.461 382.686 128.48 382.714L149.626 413.366V413.364ZM116.524 389.455L111.676 384.613L121.249 380.533C121.274 380.523 121.3 380.517 121.327 380.517C121.407 380.517 121.454 380.597 121.496 380.669C121.592 380.817 121.694 380.961 121.802 381.101L121.832 381.139C121.86 381.179 121.841 381.219 121.813 381.256L116.526 389.455H116.524ZM109.531 382.47L103.398 376.343C102.355 375.301 101.598 374.545 101.072 373.895L119.72 377.759C119.743 377.763 119.767 377.767 119.79 377.771C119.905 377.789 120.032 377.81 120.032 377.918C120.032 378.036 119.893 378.09 119.776 378.134L119.722 378.158L109.531 382.47ZM100 370.745C100.021 370.351 100.092 369.96 100.211 369.583C100.559 368.49 101.504 367.546 103.398 365.654L111.246 357.814C114.86 363.053 118.483 368.285 122.116 373.51C122.18 373.595 122.25 373.689 122.177 373.759C121.834 374.137 121.491 374.55 121.249 374.998C121.223 375.056 121.183 375.106 121.132 375.144C121.101 375.163 121.068 375.156 121.033 375.149H121.028L100 370.743V370.745ZM113.347 355.716L123.9 345.175C124.892 345.609 128.501 347.132 131.729 348.494C134.173 349.526 136.401 350.465 137.101 350.77C137.172 350.799 137.235 350.827 137.266 350.897C137.284 350.939 137.275 350.993 137.266 351.038C136.926 352.584 137.388 354.196 138.495 355.329C138.565 355.399 138.495 355.5 138.433 355.587L138.401 355.636L127.685 372.215C127.657 372.262 127.631 372.302 127.584 372.332C127.528 372.367 127.448 372.351 127.382 372.334C126.966 372.225 126.537 372.167 126.106 372.161C125.721 372.161 125.303 372.231 124.88 372.309H124.877C124.83 372.316 124.788 372.325 124.751 372.297C124.709 372.263 124.673 372.223 124.645 372.177L113.347 355.716ZM126.031 343.046L139.693 329.399C141.585 327.509 142.532 326.563 143.627 326.218C144.549 325.927 145.538 325.927 146.46 326.218C147.555 326.563 148.502 327.509 150.394 329.399L153.355 332.356L143.638 347.388C143.614 347.432 143.581 347.47 143.542 347.501C143.483 347.541 143.401 347.524 143.33 347.501C141.775 347.029 140.087 347.354 138.819 348.369C138.755 348.435 138.661 348.397 138.581 348.362C137.313 347.811 127.443 343.644 126.031 343.046ZM155.418 334.417L164.389 343.379L162.228 356.754V356.789C162.226 356.819 162.219 356.849 162.209 356.878C162.185 356.925 162.138 356.934 162.091 356.948C161.629 357.088 161.194 357.305 160.804 357.589C160.787 357.601 160.771 357.614 160.757 357.629C160.731 357.657 160.705 357.683 160.663 357.688C160.628 357.689 160.594 357.683 160.562 357.671L146.89 351.869L146.865 351.857C146.778 351.822 146.674 351.78 146.674 351.691C146.594 350.93 146.345 350.196 145.946 349.543C145.88 349.435 145.807 349.322 145.864 349.212L155.418 334.417ZM146.178 354.618L158.994 360.04C159.065 360.072 159.142 360.103 159.173 360.176C159.185 360.22 159.185 360.266 159.173 360.31C159.135 360.497 159.102 360.711 159.102 360.927V361.286C159.102 361.375 159.011 361.413 158.926 361.448L158.9 361.457C156.87 362.323 130.397 373.6 130.357 373.6C130.317 373.6 130.275 373.6 130.235 373.56C130.164 373.489 130.235 373.391 130.298 373.301C130.31 373.286 130.321 373.27 130.331 373.255L140.863 356.965L140.882 356.937C140.943 356.838 141.014 356.728 141.126 356.728L141.232 356.744C141.472 356.777 141.683 356.807 141.897 356.807C143.495 356.807 144.975 356.031 145.868 354.702C145.89 354.667 145.917 354.635 145.948 354.608C146.012 354.561 146.106 354.585 146.178 354.618ZM131.502 376.177L160.357 363.884C160.357 363.884 160.399 363.884 160.439 363.924C160.597 364.082 160.731 364.187 160.86 364.286L160.923 364.326C160.982 364.359 161.041 364.396 161.046 364.457C161.046 364.481 161.046 364.495 161.041 364.516L158.569 379.684L158.56 379.745C158.543 379.862 158.527 379.996 158.416 379.996C157.078 380.086 155.871 380.83 155.19 381.984L155.178 382.003C155.145 382.057 155.115 382.108 155.061 382.136C155.011 382.16 154.948 382.15 154.896 382.139L131.885 377.397C131.861 377.393 131.527 376.179 131.502 376.177Z" fill="url(#paint8_radial_223_126)"/>
</g>
<g filter="url(#filter4_d_223_126)">
<path d="M590.151 511.96C592.382 510.683 595.289 510.677 597.519 511.96C608.736 518.298 619.957 524.627 631.172 530.969C633.281 532.157 634.692 534.505 634.671 536.936V575.069C634.687 577.601 633.136 580.004 630.911 581.166C619.73 587.469 608.556 593.78 597.377 600.083C595.099 601.386 592.134 601.286 589.928 599.876C586.576 597.933 583.218 596 579.866 594.059C579.181 593.65 578.409 593.325 577.925 592.661C578.353 592.085 579.117 592.013 579.739 591.761C581.138 591.316 582.423 590.602 583.708 589.909C584.033 589.687 584.43 589.772 584.742 589.971C587.608 591.615 590.449 593.306 593.325 594.933C593.938 595.288 594.559 594.817 595.084 594.525C606.055 588.324 617.04 582.147 628.009 575.944C628.416 575.749 628.641 575.317 628.608 574.872C628.615 562.292 628.609 549.711 628.611 537.131C628.658 536.626 628.366 536.161 627.909 535.955C616.767 529.68 605.631 523.396 594.492 517.12C594.299 516.987 594.07 516.916 593.836 516.916C593.602 516.915 593.373 516.986 593.179 517.118C582.04 523.396 570.906 529.686 559.766 535.96C559.311 536.167 559.006 536.624 559.06 537.131C559.062 549.711 559.06 562.292 559.06 574.874C559.04 575.091 559.088 575.309 559.196 575.498C559.305 575.688 559.468 575.839 559.666 575.933C562.638 577.618 565.615 579.292 568.589 580.972C570.265 581.874 572.323 582.41 574.169 581.719C575.798 581.135 576.94 579.472 576.909 577.742C576.925 565.236 576.902 552.728 576.921 540.224C576.88 539.668 577.407 539.21 577.946 539.262C579.375 539.252 580.805 539.243 582.233 539.266C582.83 539.252 583.24 539.85 583.166 540.41C583.16 552.995 583.182 565.58 583.157 578.166C583.16 581.52 581.782 585.169 578.68 586.811C574.858 588.791 570.134 588.371 566.358 586.472C563.089 584.841 559.969 582.915 556.759 581.167C554.527 580.012 552.985 577.599 553 575.07V536.936C552.977 534.455 554.444 532.064 556.619 530.893C567.798 524.585 578.974 518.272 590.151 511.96Z" fill="#8CC84B"/>
<path d="M599.903 538.376C604.778 538.062 609.998 538.19 614.385 540.591C617.782 542.432 619.665 546.295 619.725 550.068C619.63 550.577 619.098 550.858 618.612 550.823C617.197 550.821 615.782 550.843 614.368 550.814C613.768 550.837 613.419 550.284 613.344 549.753C612.937 547.947 611.953 546.159 610.253 545.288C607.644 543.982 604.619 544.048 601.775 544.075C599.698 544.185 597.465 544.365 595.705 545.586C594.354 546.511 593.944 548.379 594.426 549.883C594.881 550.963 596.127 551.311 597.147 551.632C603.023 553.169 609.249 553.016 615.012 555.038C617.398 555.863 619.732 557.465 620.549 559.964C621.618 563.312 621.149 567.314 618.767 570.002C616.835 572.214 614.021 573.418 611.215 574.072C607.482 574.905 603.607 574.926 599.816 574.556C596.251 574.15 592.541 573.213 589.789 570.784C587.436 568.741 586.286 565.557 586.4 562.484C586.428 561.965 586.944 561.603 587.441 561.646C588.866 561.634 590.29 561.63 591.715 561.648C592.284 561.607 592.706 562.099 592.735 562.635C592.998 564.355 593.644 566.161 595.144 567.181C598.039 569.048 601.672 568.921 604.987 568.973C607.733 568.851 610.816 568.814 613.058 566.999C614.24 565.964 614.59 564.231 614.271 562.741C613.925 561.483 612.608 560.897 611.478 560.513C605.678 558.679 599.382 559.344 593.638 557.27C591.306 556.446 589.051 554.887 588.156 552.492C586.905 549.101 587.478 544.907 590.11 542.31C592.676 539.726 596.381 538.731 599.903 538.375V538.376Z" fill="#8CC84B"/>
</g>
<g filter="url(#filter5_d_223_126)">
<path d="M221.456 511.023C221.246 511.045 220.571 511.123 219.962 511.178C211.307 512.086 202.785 515.749 195.835 521.571C194.551 522.633 191.629 525.555 190.567 526.839C184.812 533.712 181.447 541.426 180.208 550.557C179.931 552.582 179.931 559.422 180.208 561.447C181.447 570.578 184.812 578.292 190.567 585.165C191.629 586.449 194.551 589.371 195.835 590.433C202.708 596.188 210.422 599.553 219.553 600.792C221.578 601.069 228.418 601.069 230.443 600.792C239.574 599.553 247.288 596.188 254.161 590.433C255.445 589.371 258.367 586.449 259.429 585.165C265.185 578.292 268.549 570.578 269.789 561.447C270.065 559.422 270.065 552.582 269.789 550.557C268.549 541.426 265.185 533.712 259.429 526.839C258.367 525.555 255.445 522.633 254.161 521.571C247.31 515.838 239.519 512.429 230.51 511.222C229.536 511.09 228.119 511.034 225.496 511.012C223.493 510.99 221.667 511.001 221.456 511.023ZM222.01 515.804C222.01 517.099 222.098 519.91 222.22 522.578C222.287 523.884 222.364 525.754 222.397 526.728C222.519 530.181 222.884 539.246 222.94 540.053L222.995 540.861L222.497 540.806C222.22 540.784 221.966 540.718 221.921 540.684C221.888 540.64 221.811 539.876 221.766 538.98C221.567 535.04 220.914 519.755 220.848 517.52L220.781 515.063L221.091 515.019C221.257 514.996 221.534 514.963 221.711 514.952L222.01 514.941V515.804ZM232.602 515.539C232.613 515.55 232.646 518.892 232.679 522.965C232.723 527.049 232.779 530.712 232.812 531.111C232.845 531.52 232.834 531.875 232.779 531.897C232.734 531.93 232.458 531.93 232.181 531.897L231.672 531.852L231.594 528.632C231.55 526.85 231.495 524.88 231.473 524.238C231.384 522.279 231.307 515.627 231.373 515.461C231.417 515.339 231.539 515.328 232.004 515.406C232.325 515.472 232.591 515.528 232.602 515.539ZM207.002 519.246C207.069 519.346 207.589 525.444 208.231 533.424C208.441 536.136 208.651 538.615 208.684 538.925C208.74 539.489 208.729 539.511 208.375 539.733C208.175 539.854 207.976 539.954 207.932 539.954C207.899 539.954 207.832 539.666 207.799 539.312C207.644 537.873 207.046 530.923 206.626 525.898C206.382 522.943 206.161 520.298 206.128 520.01C206.073 519.523 206.084 519.479 206.371 519.324C206.726 519.136 206.925 519.102 207.002 519.246ZM237.471 521.471C237.781 521.582 237.814 521.637 237.881 522.268C237.991 523.375 237.958 528.665 237.837 528.665C237.516 528.665 236.852 528.289 236.796 528.078C236.763 527.946 236.73 526.374 236.73 524.592C236.73 520.995 236.686 521.205 237.471 521.471ZM217.029 521.991C217.029 522.29 217.107 523.939 217.195 525.677C217.284 527.414 217.384 529.617 217.428 530.569C217.505 532.494 217.527 532.428 216.786 532.472C216.421 532.483 216.421 532.483 216.399 531.93C216.376 531.62 216.321 530.657 216.255 529.772C216.199 528.886 216.067 526.972 215.978 525.511C215.889 524.05 215.779 522.6 215.746 522.29C215.679 521.737 215.69 521.714 215.989 521.604C216.166 521.537 216.476 521.482 216.675 521.482C217.029 521.471 217.029 521.471 217.029 521.991ZM247.731 523.507L248.107 523.662L248.185 525.145C248.218 525.953 248.24 527.702 248.218 529.019L248.185 531.432L247.72 531.199L247.255 530.978L247.222 527.304C247.2 525.278 247.211 523.563 247.233 523.485C247.277 523.319 247.277 523.319 247.731 523.507ZM227.522 524.957C227.588 525.024 227.743 530.391 227.754 533.114L227.765 534.752L227.245 534.675C226.946 534.641 226.703 534.608 226.691 534.597C226.658 534.575 226.326 526.374 226.326 525.577V524.758L226.891 524.824C227.212 524.869 227.488 524.924 227.522 524.957ZM253.01 525.743C253.143 525.898 253.165 528.322 253.198 541.691C253.232 557.042 253.232 557.441 253.032 557.441C252.911 557.441 252.745 557.374 252.645 557.297C252.479 557.175 252.457 555.836 252.402 542.721C252.357 534.774 252.302 527.558 252.269 526.684L252.202 525.09L252.523 525.322C252.711 525.455 252.922 525.643 253.01 525.743ZM243.083 528.012C243.138 528.056 243.193 528.687 243.204 529.406C243.26 531.852 243.271 546.849 243.215 546.893C243.193 546.915 242.994 546.86 242.773 546.771L242.374 546.605V537.187V527.779L242.684 527.846C242.85 527.89 243.027 527.957 243.083 528.012ZM212.536 528.632C212.569 528.931 212.625 529.606 212.658 530.159C212.691 530.701 212.768 531.941 212.835 532.904C212.968 534.852 212.946 534.973 212.315 534.973C211.983 534.973 211.938 534.94 211.894 534.608C211.783 533.955 211.396 528.51 211.451 528.421C211.507 528.344 212.082 528.145 212.348 528.123C212.414 528.112 212.503 528.344 212.536 528.632ZM194.23 531.454C194.352 532.627 194.595 535.084 194.772 536.91C194.961 538.736 195.116 540.286 195.116 540.352C195.116 540.485 194.263 540.906 194.175 540.817C194.12 540.762 193.013 530.967 193.013 530.524C193.013 530.259 193.865 529.141 193.976 529.263C194.009 529.285 194.12 530.27 194.23 531.454ZM237.626 532.616L237.947 532.804L237.958 535.195C237.969 536.501 237.991 537.962 237.991 538.438C238.014 539.434 237.892 539.6 237.294 539.389L236.951 539.268V538.316C236.951 537.785 236.918 536.246 236.874 534.885L236.807 532.428H237.062C237.195 532.428 237.449 532.516 237.626 532.616ZM199.089 536.91C199.288 539.035 199.609 542.621 199.819 544.879L200.196 548.974L199.764 549.406L199.343 549.837L199.266 548.963C199.222 548.476 199 546.218 198.768 543.938C198.535 541.658 198.203 538.349 198.037 536.589L197.728 533.402L198.159 533.003C198.547 532.638 198.591 532.627 198.668 532.826C198.713 532.937 198.901 534.774 199.089 536.91ZM190.799 538.249C191.043 540.43 191.685 546.229 192.238 551.132C192.791 556.035 193.312 560.761 193.411 561.646C193.5 562.532 193.655 563.871 193.743 564.635C193.898 565.93 193.898 566.018 193.721 566.151C193.455 566.35 193.345 566.328 193.345 566.096C193.345 565.996 193.245 565.155 193.123 564.247C192.924 562.731 192.592 560.163 191.851 554.397C191.696 553.235 191.397 550.922 191.187 549.251C190.965 547.579 190.644 545.089 190.467 543.717C190.29 542.344 189.991 539.998 189.803 538.482C189.604 536.977 189.482 535.637 189.515 535.494C189.593 535.195 190.246 534.154 190.312 534.221C190.334 534.254 190.556 536.058 190.799 538.249ZM187.413 543.02C187.579 544.348 187.888 546.771 188.099 548.421C188.309 550.059 188.575 552.106 188.696 552.958L188.907 554.508L188.674 554.707C188.541 554.818 188.409 554.862 188.364 554.818C188.32 554.773 188.232 554.331 188.165 553.844C188.099 553.357 187.689 550.512 187.247 547.535L186.461 542.112L186.715 541.359C186.848 540.95 186.992 540.618 187.025 540.618C187.069 540.618 187.235 541.703 187.413 543.02ZM248.174 541.57C248.329 541.725 248.351 542.411 248.351 547.491V553.235H248.041C247.366 553.235 247.377 553.401 247.333 547.115L247.299 541.393H247.654C247.842 541.393 248.085 541.47 248.174 541.57ZM223.947 543.551C226.448 543.927 228.628 544.624 230.786 545.731C232.181 546.451 232.845 546.949 234.395 548.432C236.697 550.634 238.113 552.56 239.441 555.282C241.378 559.245 242.131 562.753 243.083 572.161C243.514 576.377 244.079 584.025 244.2 587.157C244.234 588.065 244.311 589.559 244.378 590.477C244.499 592.425 244.643 592.16 242.928 592.99C240.548 594.141 238.257 594.938 235.236 595.679C231.539 596.587 229.148 596.875 225.496 596.886L222.84 596.897L222.862 595.624C222.862 594.927 222.928 593.3 222.995 592.027C223.327 585.862 223.261 578.082 222.829 573.765C222.585 571.286 222.109 568.276 221.844 567.612C221.789 567.468 222.043 567.346 223.139 566.97C225.142 566.273 226.88 565.398 227.145 564.967C227.621 564.148 226.769 562.974 225.684 562.974C225.496 562.974 224.932 563.174 224.412 563.406C221.932 564.546 216.963 565.885 214.097 566.184C212.115 566.394 209.039 566.273 206.903 565.885C205.74 565.675 203.66 564.889 201.922 563.993C199.919 562.952 198.69 561.569 198.325 559.931C198.126 559.045 198.181 557.275 198.436 556.279C198.713 555.183 199.487 553.589 200.196 552.659C203.35 548.509 209.858 544.912 216.531 543.65C218.656 543.252 221.667 543.208 223.947 543.551ZM258.09 543.894C258.489 544.06 258.533 544.104 258.533 544.481C258.555 547.502 258.489 554.408 258.433 554.696C258.422 554.796 257.847 554.807 257.603 554.718C257.448 554.663 257.426 554.065 257.426 549.184C257.426 545.687 257.47 543.717 257.537 543.717C257.592 543.717 257.847 543.794 258.09 543.894ZM262.927 549.97L263.325 550.136L263.248 559.3C263.159 570.976 263.148 571.319 262.728 572.327C262.041 573.976 262.075 574.308 262.141 567.069C262.163 563.45 262.218 559.787 262.241 558.935C262.263 558.083 262.285 555.681 262.296 553.589C262.296 551.066 262.329 549.804 262.407 549.804C262.473 549.804 262.705 549.881 262.927 549.97ZM196.366 552.726C196.433 553.622 196.41 553.711 196.09 554.419L195.735 555.172L195.603 554.065C195.392 552.294 195.392 552.217 195.813 551.951C196.001 551.818 196.2 551.73 196.233 551.752C196.267 551.774 196.333 552.217 196.366 552.726ZM189.526 559.4C189.626 560.307 190.401 566.328 190.799 569.283C191.397 573.854 191.441 574.507 191.176 574.23C191.142 574.197 190.888 572.659 190.622 570.81C188.896 558.879 188.907 558.957 189.051 558.868C189.349 558.669 189.449 558.78 189.526 559.4ZM197.495 564.469C197.562 564.745 197.882 567.745 197.882 568.11C197.882 568.42 197.484 568.707 197.307 568.53C197.252 568.475 197.108 567.534 196.997 566.45C196.875 565.354 196.754 564.214 196.72 563.915L196.654 563.362L197.041 563.805C197.263 564.048 197.462 564.347 197.495 564.469ZM206.427 568.641C206.548 568.752 206.626 569.194 206.726 570.39C206.892 572.548 206.914 572.382 206.46 572.382C205.995 572.382 206.006 572.415 205.851 570.467C205.696 568.486 205.696 568.508 205.995 568.508C206.139 568.508 206.327 568.575 206.427 568.641ZM215.192 568.807C215.214 568.918 215.27 569.582 215.314 570.279C215.347 570.976 215.447 572.548 215.535 573.765C215.845 578.237 215.856 578.801 215.668 578.801C215.458 578.801 215.436 578.635 215.192 575.481C215.104 574.175 214.938 572.116 214.827 570.91C214.727 569.704 214.661 568.696 214.694 568.674C214.816 568.541 215.137 568.641 215.192 568.807ZM194.385 570.932C194.452 571.032 194.872 574.573 195.392 579.41C195.547 580.871 195.702 582.276 195.735 582.542L195.791 583.018L195.514 582.841C195.304 582.697 195.226 582.553 195.226 582.299C195.226 581.601 194.75 577.008 194.385 574.197C194.175 572.603 194.009 571.198 194.009 571.065C194.009 570.832 194.274 570.744 194.385 570.932ZM258.256 575.558L258.179 580.185L257.902 580.594C257.271 581.524 257.304 581.701 257.338 576.521L257.36 571.773L257.769 571.353C257.991 571.131 258.212 570.943 258.256 570.943C258.289 570.943 258.289 573.024 258.256 575.558ZM248.019 582.896C248.074 589.326 248.063 589.824 247.886 590.024C247.775 590.145 247.676 590.223 247.642 590.19C247.565 590.101 247.454 576.079 247.543 576.001C247.587 575.957 247.698 575.935 247.797 575.946C247.941 575.979 247.974 576.765 248.019 582.896ZM211.872 578.491C211.949 579.177 212.226 582.465 212.337 584.014C212.403 585.054 212.403 585.088 212.16 585.165C212.027 585.209 211.872 585.198 211.828 585.143C211.75 585.065 211.507 582.608 211.208 578.823L211.13 577.916H211.474C211.794 577.916 211.817 577.938 211.872 578.491ZM203.173 582.365C203.25 582.442 203.306 582.719 203.306 582.996C203.306 583.284 203.438 584.778 203.582 586.327C204.003 590.566 204.036 591.142 203.848 591.031C203.56 590.865 203.306 590.61 203.361 590.544C203.383 590.5 203.339 589.946 203.25 589.315C203.173 588.673 203.073 587.633 203.029 586.991C202.985 586.349 202.885 585.176 202.797 584.39C202.586 582.453 202.597 582.232 202.841 582.232C202.951 582.232 203.095 582.287 203.173 582.365ZM208.408 589.813C208.441 590.057 208.507 590.964 208.552 591.828C208.629 593.488 208.596 593.61 208.142 593.267C208.009 593.167 207.921 592.746 207.788 591.485C207.556 589.205 207.545 589.293 207.976 589.338C208.297 589.371 208.341 589.415 208.408 589.813Z" fill="#EDEDED"/>
<path d="M204.456 548.852C203.305 549.35 203.217 550.911 204.301 551.464C205.087 551.863 205.884 551.674 206.294 550.988C207.068 549.726 205.807 548.266 204.456 548.852Z" fill="#EDEDED"/>
<path d="M211.96 549.915C210.898 550.568 210.898 552.139 211.96 552.792C213.012 553.423 214.373 552.593 214.373 551.331C214.373 550.114 212.979 549.295 211.96 549.915Z" fill="#EDEDED"/>
</g>
<g filter="url(#filter6_d_223_126)">
<path d="M636.758 166.023C636.553 165.804 636.334 165.586 636.116 165.38C635.897 165.174 635.691 164.943 635.473 164.737C635.254 164.532 635.048 164.3 634.83 164.094C634.611 163.889 634.406 163.657 634.187 163.452C633.968 163.246 633.763 163.014 633.544 162.809C633.326 162.603 633.12 162.372 632.901 162.166C632.683 161.96 632.477 161.729 632.258 161.523C638.636 167.79 642.289 176.317 642.428 185.257C642.428 206.562 620.803 223.893 594.214 223.893C579.326 223.893 566.006 218.454 557.147 209.93L557.79 210.573L558.433 211.216L559.076 211.859L559.718 212.502L560.361 213.144L561.004 213.787L561.647 214.43C570.493 223.314 584.108 229.036 599.357 229.036C625.946 229.036 647.571 211.704 647.571 190.464C647.571 181.387 643.663 172.786 636.758 166.023Z" fill="black"/>
<path d="M639.214 185.257C639.214 204.813 619.067 220.666 594.214 220.666C569.361 220.666 549.214 204.813 549.214 185.257C549.214 173.133 556.928 162.423 568.782 156.071C580.637 149.72 588.017 143.214 594.214 143.214C600.411 143.214 605.708 148.524 619.645 156.071C631.5 162.423 639.214 173.133 639.214 185.257Z" fill="#FBF0DF"/>
<path d="M639.214 185.257C639.208 182.745 638.862 180.245 638.186 177.826C634.676 220.64 582.45 222.697 561.917 209.892C571.147 217.046 582.537 220.845 594.214 220.666C619.028 220.666 639.214 204.787 639.214 185.257Z" fill="#F6DECE"/>
<path d="M576.895 153.719C582.642 150.273 590.28 143.806 597.788 143.793C596.633 143.42 595.428 143.224 594.214 143.214C591.102 143.214 587.785 144.821 583.607 147.239C582.154 148.087 580.65 149.026 579.055 150.003C576.06 151.854 572.627 153.95 568.77 156.046C556.53 162.667 549.214 173.583 549.214 185.257V186.787C557.005 159.26 571.161 157.164 576.895 153.719V153.719Z" fill="#FFFEFC"/>
<path fill-rule="evenodd" clip-rule="evenodd" d="M590.511 146.467C590.529 149.503 589.892 152.507 588.642 155.274C587.393 158.041 585.561 160.506 583.272 162.5C582.912 162.821 583.195 163.439 583.658 163.259C587.991 161.574 593.841 156.534 591.372 146.364C591.27 145.786 590.511 145.94 590.511 146.467V146.467ZM593.43 146.467C595.003 149.034 596.002 151.911 596.36 154.9C596.717 157.889 596.424 160.92 595.5 163.786C595.345 164.236 595.898 164.621 596.207 164.249C599.022 160.649 601.478 153.5 594.124 145.786C593.751 145.451 593.172 145.966 593.43 146.416V146.467ZM596.978 146.249C599.442 147.993 601.503 150.245 603.022 152.853C604.541 155.461 605.484 158.365 605.785 161.369C605.772 161.477 605.801 161.586 605.867 161.673C605.932 161.761 606.028 161.819 606.136 161.838C606.243 161.856 606.354 161.832 606.444 161.771C606.534 161.71 606.598 161.617 606.621 161.51C607.804 157.023 607.135 149.373 597.402 145.4C596.888 145.194 596.554 145.889 596.978 146.197V146.249ZM573.244 159.62C576.174 158.745 578.888 157.262 581.207 155.268C583.526 153.274 585.4 150.814 586.705 148.049C586.937 147.586 587.67 147.766 587.554 148.28C585.33 158.566 577.885 160.713 573.257 160.43C572.768 160.443 572.781 159.761 573.244 159.62V159.62Z" fill="#CCBEA7"/>
<path d="M594.214 223.893C567.626 223.893 546 206.561 546 185.257C546 172.4 553.946 160.404 567.253 153.217C571.11 151.16 574.414 149.09 577.359 147.277C578.979 146.274 580.509 145.336 581.987 144.461C586.5 141.787 590.357 140 594.214 140C598.071 140 601.44 141.543 605.657 144.037C606.943 144.77 608.229 145.567 609.604 146.441C612.806 148.421 616.419 150.659 621.176 153.217C634.483 160.404 642.429 172.387 642.429 185.257C642.429 206.561 620.803 223.893 594.214 223.893ZM594.214 143.214C591.103 143.214 587.786 144.821 583.607 147.239C582.154 148.087 580.65 149.026 579.056 150.003C576.06 151.854 572.627 153.95 568.77 156.046C556.53 162.667 549.214 173.583 549.214 185.257C549.214 204.787 569.4 220.679 594.214 220.679C619.029 220.679 639.214 204.787 639.214 185.257C639.214 173.583 631.899 162.667 619.646 156.071C614.786 153.5 610.993 151.083 607.92 149.18C606.519 148.319 605.233 147.521 604.063 146.814C600.167 144.5 597.326 143.214 594.214 143.214Z" fill="black"/>
<path d="M603.278 194.643C602.701 197.009 601.386 199.129 599.524 200.699C598.126 202.054 596.317 202.904 594.381 203.116C592.388 202.938 590.515 202.085 589.071 200.699C587.228 199.122 585.932 197.002 585.368 194.643C585.35 194.503 585.363 194.36 585.408 194.226C585.453 194.093 585.528 193.971 585.627 193.87C585.727 193.77 585.848 193.693 585.981 193.647C586.114 193.6 586.257 193.585 586.397 193.602H602.263C602.402 193.587 602.543 193.604 602.675 193.651C602.806 193.699 602.926 193.775 603.023 193.876C603.121 193.976 603.195 194.097 603.239 194.23C603.283 194.363 603.297 194.504 603.278 194.643V194.643Z" fill="#B71422"/>
<path d="M589.071 200.802C590.512 202.189 592.378 203.049 594.369 203.244C596.354 203.047 598.216 202.186 599.653 200.802C600.113 200.373 600.542 199.913 600.939 199.426C600.146 198.527 599.179 197.8 598.096 197.29C597.012 196.779 595.836 196.495 594.639 196.456C593.358 196.486 592.103 196.827 590.983 197.45C589.863 198.073 588.912 198.958 588.21 200.03C588.506 200.3 588.763 200.557 589.071 200.802Z" fill="#FF6164"/>
<path d="M589.277 199.786C589.915 198.962 590.731 198.293 591.664 197.83C592.597 197.367 593.623 197.121 594.664 197.111C596.59 197.168 598.424 197.943 599.807 199.284C600.103 198.963 600.386 198.629 600.656 198.294C599.02 196.737 596.859 195.851 594.6 195.813C593.393 195.823 592.204 196.101 591.116 196.625C590.029 197.15 589.072 197.909 588.313 198.847C588.617 199.177 588.939 199.491 589.277 199.786V199.786Z" fill="black"/>
<path d="M594.33 203.887C592.188 203.699 590.171 202.793 588.609 201.316C586.618 199.632 585.217 197.358 584.61 194.823C584.566 194.597 584.574 194.365 584.632 194.142C584.69 193.92 584.796 193.713 584.944 193.537C585.12 193.324 585.343 193.155 585.595 193.041C585.847 192.927 586.121 192.873 586.397 192.881H602.263C602.539 192.876 602.812 192.932 603.063 193.045C603.315 193.158 603.538 193.327 603.716 193.537C603.862 193.714 603.967 193.921 604.023 194.143C604.078 194.366 604.083 194.598 604.037 194.823C603.43 197.358 602.029 199.632 600.039 201.316C598.479 202.791 596.468 203.697 594.33 203.887V203.887ZM586.397 194.373C586.191 194.373 586.14 194.463 586.127 194.489C586.671 196.687 587.9 198.655 589.637 200.107C590.907 201.359 592.559 202.15 594.33 202.357C596.097 202.153 597.746 201.371 599.023 200.133C600.755 198.678 601.979 196.71 602.52 194.514C602.492 194.473 602.453 194.441 602.408 194.42C602.362 194.4 602.312 194.392 602.263 194.399L586.397 194.373Z" fill="black"/>
<path d="M613.783 195.44C617.937 195.44 621.304 193.46 621.304 191.017C621.304 188.575 617.937 186.594 613.783 186.594C609.629 186.594 606.261 188.575 606.261 191.017C606.261 193.46 609.629 195.44 613.783 195.44Z" fill="#FEBBD0"/>
<path d="M574.864 195.44C579.018 195.44 582.386 193.46 582.386 191.017C582.386 188.575 579.018 186.594 574.864 186.594C570.71 186.594 567.343 188.575 567.343 191.017C567.343 193.46 570.71 195.44 574.864 195.44Z" fill="#FEBBD0"/>
<path fill-rule="evenodd" clip-rule="evenodd" d="M578.4 189.243C579.802 189.245 581.173 188.832 582.339 188.055C583.506 187.278 584.416 186.173 584.954 184.879C585.492 183.584 585.635 182.16 585.363 180.784C585.091 179.409 584.417 178.146 583.427 177.154C582.437 176.162 581.174 175.486 579.8 175.211C578.425 174.937 577 175.077 575.705 175.612C574.41 176.148 573.302 177.056 572.523 178.221C571.744 179.387 571.329 180.757 571.329 182.159C571.329 184.035 572.073 185.835 573.399 187.163C574.725 188.492 576.523 189.239 578.4 189.243V189.243ZM610.247 189.243C611.65 189.253 613.025 188.846 614.197 188.074C615.369 187.302 616.285 186.199 616.829 184.905C617.373 183.612 617.52 182.186 617.253 180.808C616.985 179.431 616.315 178.164 615.326 177.168C614.337 176.172 613.075 175.492 611.7 175.214C610.324 174.937 608.897 175.074 607.6 175.609C606.302 176.143 605.193 177.051 604.412 178.218C603.631 179.384 603.214 180.755 603.214 182.159C603.211 184.03 603.949 185.826 605.267 187.154C606.585 188.481 608.376 189.233 610.247 189.243V189.243Z" fill="black"/>
<path fill-rule="evenodd" clip-rule="evenodd" d="M576.214 182.609C576.741 182.611 577.257 182.457 577.696 182.166C578.135 181.875 578.479 181.461 578.682 180.975C578.885 180.489 578.94 179.953 578.839 179.436C578.737 178.919 578.485 178.443 578.113 178.07C577.742 177.696 577.267 177.442 576.751 177.338C576.234 177.234 575.698 177.286 575.211 177.487C574.724 177.688 574.308 178.029 574.015 178.467C573.722 178.905 573.565 179.42 573.565 179.947C573.565 180.651 573.844 181.326 574.34 181.825C574.837 182.323 575.51 182.605 576.214 182.609ZM608.061 182.609C608.588 182.611 609.104 182.457 609.543 182.166C609.983 181.875 610.326 181.461 610.529 180.975C610.733 180.489 610.787 179.953 610.686 179.436C610.585 178.919 610.332 178.443 609.96 178.07C609.589 177.696 609.115 177.442 608.598 177.338C608.081 177.234 607.546 177.286 607.059 177.487C606.571 177.688 606.155 178.029 605.862 178.467C605.569 178.905 605.413 179.42 605.413 179.947C605.412 180.646 605.688 181.318 606.178 181.816C606.669 182.314 607.336 182.598 608.035 182.609H608.061Z" fill="white"/>
</g>
<g filter="url(#filter7_d_223_126)">
<path d="M267 140H177V230H267V140Z" fill="#F7DF1E"/>
<path d="M237.457 210.313C239.27 213.273 241.629 215.449 245.8 215.449C249.304 215.449 251.543 213.697 251.543 211.277C251.543 208.377 249.243 207.35 245.386 205.663L243.272 204.756C237.169 202.156 233.114 198.899 233.114 192.013C233.114 185.67 237.947 180.841 245.5 180.841C250.877 180.841 254.743 182.713 257.529 187.613L250.943 191.841C249.493 189.241 247.929 188.217 245.5 188.217C243.023 188.217 241.453 189.789 241.453 191.841C241.453 194.379 243.024 195.406 246.653 196.977L248.767 197.883C255.953 200.964 260.01 204.106 260.01 211.169C260.01 218.783 254.029 222.954 245.996 222.954C238.142 222.954 233.067 219.211 230.584 214.306L237.457 210.313ZM207.582 211.046C208.91 213.403 210.119 215.396 213.024 215.396C215.803 215.396 217.556 214.309 217.556 210.081V181.324H226.013V210.196C226.013 218.953 220.879 222.939 213.384 222.939C206.613 222.939 202.692 219.434 200.697 215.214L207.582 211.046Z" fill="black"/>
</g>
<defs>
<filter id="filter0_d_223_126" x="292" y="0" width="228" height="218.188" filterUnits="userSpaceOnUse" color-interpolation-filters="sRGB">
<feFlood flood-opacity="0" result="BackgroundImageFix"/>
<feColorMatrix in="SourceAlpha" type="matrix" values="0 0 0 0 0 0 0 0 0 0 0 0 0 0 0 0 0 0 127 0" result="hardAlpha"/>
<feOffset/>
<feGaussianBlur stdDeviation="32"/>
<feComposite in2="hardAlpha" operator="out"/>
<feColorMatrix type="matrix" values="0 0 0 0 1 0 0 0 0 0.78 0 0 0 0 0 0 0 0 0.47 0"/>
<feBlend mode="normal" in2="BackgroundImageFix" result="effect1_dropShadow_223_126"/>
<feBlend mode="normal" in="SourceGraphic" in2="effect1_dropShadow_223_126" result="shape"/>
</filter>
<filter id="filter1_d_223_126" x="323.5" y="552.737" width="166.862" height="156.527" filterUnits="userSpaceOnUse" color-interpolation-filters="sRGB">
<feFlood flood-opacity="0" result="BackgroundImageFix"/>
<feColorMatrix in="SourceAlpha" type="matrix" values="0 0 0 0 0 0 0 0 0 0 0 0 0 0 0 0 0 0 127 0" result="hardAlpha"/>
<feOffset/>
<feGaussianBlur stdDeviation="20"/>
<feColorMatrix type="matrix" values="0 0 0 0 0.380392 0 0 0 0 0.854902 0 0 0 0 0.984314 0 0 0 1 0"/>
<feBlend mode="normal" in2="BackgroundImageFix" result="effect1_dropShadow_223_126"/>
<feBlend mode="normal" in="SourceGraphic" in2="effect1_dropShadow_223_126" result="shape"/>
</filter>
<filter id="filter2_d_223_126" x="527" y="224" width="286.966" height="290" filterUnits="userSpaceOnUse" color-interpolation-filters="sRGB">
<feFlood flood-opacity="0" result="BackgroundImageFix"/>
<feColorMatrix in="SourceAlpha" type="matrix" values="0 0 0 0 0 0 0 0 0 0 0 0 0 0 0 0 0 0 127 0" result="hardAlpha"/>
<feOffset/>
<feGaussianBlur stdDeviation="50"/>
<feComposite in2="hardAlpha" operator="out"/>
<feColorMatrix type="matrix" values="0 0 0 0 1 0 0 0 0 0.78 0 0 0 0 0 0 0 0 1 0"/>
<feBlend mode="normal" in2="BackgroundImageFix" result="effect1_dropShadow_223_126"/>
<feBlend mode="normal" in="SourceGraphic" in2="effect1_dropShadow_223_126" result="shape"/>
</filter>
<filter id="filter3_d_223_126" x="0" y="226" width="290" height="290" filterUnits="userSpaceOnUse" color-interpolation-filters="sRGB">
<feFlood flood-opacity="0" result="BackgroundImageFix"/>
<feColorMatrix in="SourceAlpha" type="matrix" values="0 0 0 0 0 0 0 0 0 0 0 0 0 0 0 0 0 0 127 0" result="hardAlpha"/>
<feOffset/>
<feGaussianBlur stdDeviation="50"/>
<feComposite in2="hardAlpha" operator="out"/>
<feColorMatrix type="matrix" values="0 0 0 0 0 0 0 0 0 0.785714 0 0 0 0 1 0 0 0 1 0"/>
<feBlend mode="normal" in2="BackgroundImageFix" result="effect1_dropShadow_223_126"/>
<feBlend mode="normal" in="SourceGraphic" in2="effect1_dropShadow_223_126" result="shape"/>
</filter>
<filter id="filter4_d_223_126" x="493" y="451" width="201.671" height="210" filterUnits="userSpaceOnUse" color-interpolation-filters="sRGB">
<feFlood flood-opacity="0" result="BackgroundImageFix"/>
<feColorMatrix in="SourceAlpha" type="matrix" values="0 0 0 0 0 0 0 0 0 0 0 0 0 0 0 0 0 0 127 0" result="hardAlpha"/>
<feOffset/>
<feGaussianBlur stdDeviation="30"/>
<feComposite in2="hardAlpha" operator="out"/>
<feColorMatrix type="matrix" values="0 0 0 0 0.631373 0 0 0 0 0.882353 0 0 0 0 0.298039 0 0 0 1 0"/>
<feBlend mode="normal" in2="BackgroundImageFix" result="effect1_dropShadow_223_126"/>
<feBlend mode="normal" in="SourceGraphic" in2="effect1_dropShadow_223_126" result="shape"/>
</filter>
<filter id="filter5_d_223_126" x="120" y="451" width="209.996" height="210" filterUnits="userSpaceOnUse" color-interpolation-filters="sRGB">
<feFlood flood-opacity="0" result="BackgroundImageFix"/>
<feColorMatrix in="SourceAlpha" type="matrix" values="0 0 0 0 0 0 0 0 0 0 0 0 0 0 0 0 0 0 127 0" result="hardAlpha"/>
<feOffset/>
<feGaussianBlur stdDeviation="30"/>
<feComposite in2="hardAlpha" operator="out"/>
<feColorMatrix type="matrix" values="0 0 0 0 0.60375 0 0 0 0 0.63315 0 0 0 0 0.7875 0 0 0 1 0"/>
<feBlend mode="normal" in2="BackgroundImageFix" result="effect1_dropShadow_223_126"/>
<feBlend mode="normal" in="SourceGraphic" in2="effect1_dropShadow_223_126" result="shape"/>
</filter>
<filter id="filter6_d_223_126" x="486" y="80" width="221.571" height="209.036" filterUnits="userSpaceOnUse" color-interpolation-filters="sRGB">
<feFlood flood-opacity="0" result="BackgroundImageFix"/>
<feColorMatrix in="SourceAlpha" type="matrix" values="0 0 0 0 0 0 0 0 0 0 0 0 0 0 0 0 0 0 127 0" result="hardAlpha"/>
<feOffset/>
<feGaussianBlur stdDeviation="30"/>
<feComposite in2="hardAlpha" operator="out"/>
<feColorMatrix type="matrix" values="0 0 0 0 0.996078 0 0 0 0 0.733333 0 0 0 0 0.815686 0 0 0 0.7 0"/>
<feBlend mode="normal" in2="BackgroundImageFix" result="effect1_dropShadow_223_126"/>
<feBlend mode="normal" in="SourceGraphic" in2="effect1_dropShadow_223_126" result="shape"/>
</filter>
<filter id="filter7_d_223_126" x="127" y="90" width="190" height="190" filterUnits="userSpaceOnUse" color-interpolation-filters="sRGB">
<feFlood flood-opacity="0" result="BackgroundImageFix"/>
<feColorMatrix in="SourceAlpha" type="matrix" values="0 0 0 0 0 0 0 0 0 0 0 0 0 0 0 0 0 0 127 0" result="hardAlpha"/>
<feOffset/>
<feGaussianBlur stdDeviation="25"/>
<feComposite in2="hardAlpha" operator="out"/>
<feColorMatrix type="matrix" values="0 0 0 0 0.968627 0 0 0 0 0.87451 0 0 0 0 0.117647 0 0 0 0.5 0"/>
<feBlend mode="normal" in2="BackgroundImageFix" result="effect1_dropShadow_223_126"/>
<feBlend mode="normal" in="SourceGraphic" in2="effect1_dropShadow_223_126" result="shape"/>
</filter>
<linearGradient id="paint0_linear_223_126" x1="374.746" y1="152.889" x2="336.345" y2="91.1315" gradientUnits="userSpaceOnUse">
<stop stop-color="#EB6F07"/>
<stop offset="1" stop-color="#FAB743"/>
</linearGradient>
<linearGradient id="paint1_linear_223_126" x1="386.654" y1="145.255" x2="366.881" y2="124.92" gradientUnits="userSpaceOnUse">
<stop stop-color="#D96504"/>
<stop offset="1" stop-color="#D96504" stop-opacity="0"/>
</linearGradient>
<linearGradient id="paint2_linear_223_126" x1="380.133" y1="67.4133" x2="390.6" y2="84.2271" gradientUnits="userSpaceOnUse">
<stop stop-color="#EB6F07"/>
<stop offset="1" stop-color="#EB720A" stop-opacity="0"/>
</linearGradient>
<linearGradient id="paint3_linear_223_126" x1="430.998" y1="154.164" x2="396.613" y2="82.5143" gradientUnits="userSpaceOnUse">
<stop stop-color="#EE6F05"/>
<stop offset="1" stop-color="#FAB743"/>
</linearGradient>
<linearGradient id="paint4_linear_223_126" x1="395.782" y1="154.188" x2="450.835" y2="140.215" gradientUnits="userSpaceOnUse">
<stop stop-color="#D96504" stop-opacity="0.8"/>
<stop offset="0.498" stop-color="#D96504" stop-opacity="0.2"/>
<stop offset="1" stop-color="#D96504" stop-opacity="0"/>
</linearGradient>
<linearGradient id="paint5_linear_223_126" x1="405.906" y1="154.164" x2="370.819" y2="83.4133" gradientUnits="userSpaceOnUse">
<stop stop-color="#FFA95F"/>
<stop offset="1" stop-color="#FFEBC8"/>
</linearGradient>
<linearGradient id="paint6_linear_223_126" x1="405.959" y1="64.9918" x2="435.22" y2="69.5919" gradientUnits="userSpaceOnUse">
<stop stop-color="white" stop-opacity="0.5"/>
<stop offset="1" stop-color="white" stop-opacity="0.1"/>
</linearGradient>
<linearGradient id="paint7_linear_223_126" x1="378.178" y1="157.433" x2="414.345" y2="152.105" gradientUnits="userSpaceOnUse">
<stop stop-color="white" stop-opacity="0.5"/>
<stop offset="1" stop-color="white" stop-opacity="0.1"/>
</linearGradient>
<radialGradient id="paint8_radial_223_126" cx="0" cy="0" r="1" gradientUnits="userSpaceOnUse" gradientTransform="translate(145 281) scale(89.9999)">
<stop stop-color="#20C6B7"/>
<stop offset="1" stop-color="#4D9ABF"/>
</radialGradient>
</defs>
</svg>
