<svg width="816" height="710" viewBox="0 0 816 710" fill="none" xmlns="http://www.w3.org/2000/svg">
<g filter="url(#filter0_d_223_126)">
<path d="M381.711 65.2985L393.493 86.553L382.673 106.028C382.155 106.958 381.883 108.005 381.883 109.07C381.883 110.134 382.155 111.181 382.673 112.111L393.493 131.635L381.711 152.889C379.494 151.79 377.654 150.058 376.422 147.912L357.668 115.333C356.575 113.431 356 111.276 356 109.082C356 106.888 356.575 104.733 357.668 102.831L376.422 70.2515C377.657 68.1145 379.498 66.3911 381.711 65.2985Z" fill="url(#paint0_linear_223_126)"/>
<path opacity="0.7" d="M382.673 106.052C382.159 106.979 381.89 108.022 381.89 109.082C381.89 110.142 382.159 111.184 382.673 112.111L393.493 131.635L381.711 152.889C379.494 151.79 377.653 150.058 376.422 147.912L357.668 115.333C356.177 112.761 364.52 109.683 382.673 106.076V106.052Z" fill="url(#paint1_linear_223_126)"/>
<path opacity="0.5" d="M382.913 67.4383L393.493 86.553L391.737 89.6066L382.408 73.8099C379.716 69.4099 375.604 71.6941 370.459 80.5902L371.228 79.2678L376.422 70.2515C377.644 68.1215 379.467 66.3988 381.663 65.2985L382.889 67.4383H382.913Z" fill="url(#paint2_linear_223_126)"/>
<path d="M435.569 70.2513L454.323 102.83C456.559 106.677 456.559 111.486 454.323 115.333L435.569 147.912C434.472 149.812 432.895 151.389 430.996 152.487C429.097 153.584 426.942 154.162 424.749 154.164H405.995L429.317 112.111C429.831 111.184 430.101 110.142 430.101 109.082C430.101 108.022 429.831 106.979 429.317 106.052L405.995 64H424.749C426.942 64.0014 429.097 64.5798 430.996 65.677C432.895 66.7743 434.472 68.3519 435.569 70.2513Z" fill="url(#paint3_linear_223_126)"/>
<path d="M423.788 154.019L405.274 154.188L427.683 111.919C428.184 110.979 428.446 109.93 428.446 108.865C428.446 107.8 428.184 106.752 427.683 105.812L405.274 64H409.506L433.021 105.62C433.578 106.603 433.869 107.714 433.864 108.845C433.86 109.975 433.561 111.084 432.996 112.063C427.936 120.859 422.911 129.675 417.921 138.511C413.353 146.542 415.324 151.711 423.788 154.019Z" fill="url(#paint4_linear_223_126)"/>
<path d="M387.241 154.164C385.318 154.164 383.394 153.707 381.711 152.889L404.841 111.174C405.563 109.875 405.563 108.288 404.841 106.99L381.711 65.2984C383.431 64.447 385.323 64.0028 387.241 64H405.996L429.318 106.052C429.831 106.979 430.101 108.022 430.101 109.082C430.101 110.142 429.831 111.184 429.318 112.111L405.996 154.164H387.241Z" fill="url(#paint5_linear_223_126)"/>
<path opacity="0.6" d="M427.683 106.99L403.832 64H405.995L429.318 106.052C429.831 106.979 430.101 108.022 430.101 109.082C430.101 110.142 429.831 111.184 429.318 112.111L405.995 154.164H403.832L427.683 111.174C428.404 109.875 428.404 108.288 427.683 106.99Z" fill="url(#paint6_linear_223_126)"/>
<path opacity="0.6" d="M404.841 106.99L381.711 65.2984C382.433 64.9137 383.298 64.6252 384.116 64.3848C389.213 73.5454 396.739 87.4426 406.717 106.052C407.23 106.98 407.5 108.022 407.5 109.082C407.5 110.142 407.23 111.184 406.717 112.111L383.755 153.683C382.938 153.442 382.505 153.274 381.735 152.913L404.817 111.198C405.539 109.899 405.539 108.313 404.817 107.014L404.841 106.99Z" fill="url(#paint7_linear_223_126)"/>
</g>
<g filter="url(#filter1_d_223_126)">
<path d="M406.931 623.065C402.513 623.065 398.93 626.618 398.93 631C398.93 635.382 402.513 638.935 406.931 638.935C411.35 638.935 414.932 635.382 414.932 631C414.932 626.618 411.35 623.065 406.931 623.065Z" fill="#61DAFB"/>
<path d="M406.931 614.744C383.221 614.744 364 622.022 364 631C364 639.978 383.221 647.256 406.931 647.256C430.642 647.256 449.863 639.978 449.863 631C449.863 622.022 430.642 614.744 406.931 614.744Z" stroke="#61DAFB"/>
<path d="M421.127 622.872C409.272 602.508 393.306 589.639 385.466 594.128C377.626 598.617 380.88 618.764 392.736 639.128C404.591 659.492 420.557 672.361 428.397 667.872C436.237 663.383 432.982 643.236 421.127 622.872Z" stroke="#61DAFB"/>
<path d="M421.127 639.128C432.982 618.764 436.237 598.617 428.397 594.128C420.557 589.639 404.591 602.508 392.735 622.872C380.88 643.236 377.625 663.383 385.466 667.872C393.306 672.361 409.272 659.492 421.127 639.128Z" stroke="#61DAFB"/>
</g>
<g filter="url(#filter2_d_223_126)">
<path d="M668.107 368.896C667.637 368.565 667.25 368.286 666.859 368.018C660.565 363.736 654.271 359.456 647.978 355.178C642.124 351.198 636.274 347.213 630.427 343.225C630.335 343.158 630.258 343.074 630.201 342.976C630.144 342.878 630.109 342.769 630.097 342.656C630.145 337.025 630.206 331.395 630.279 325.767C630.279 325.704 630.298 325.64 630.317 325.517C630.434 325.563 630.549 325.615 630.66 325.675C636.742 329.603 642.823 333.531 648.903 337.458C654.291 340.942 659.678 344.427 665.063 347.915C671.047 351.78 677.036 355.643 683.028 359.504C683.911 360.075 684.778 360.668 685.678 361.209C685.919 361.347 686.204 361.389 686.475 361.325C689.788 360.285 693.093 359.223 696.399 358.164C697.814 357.711 699.221 357.236 700.645 356.812C701.103 356.674 701.242 356.447 701.24 355.979C701.225 352.441 701.23 348.924 701.23 345.397C701.23 344.727 701.23 344.725 701.891 344.725C706.223 344.725 710.555 344.725 714.887 344.712C715.369 344.712 715.477 344.871 715.477 345.324C715.465 352.426 715.465 359.529 715.477 366.634C715.498 366.799 715.459 366.966 715.366 367.104C715.273 367.242 715.133 367.341 714.972 367.383C705.561 371.129 696.153 374.875 686.749 378.621C675.781 382.991 664.812 387.361 653.842 391.731C650.437 393.088 647.034 394.455 643.621 395.797C643.205 395.958 643.126 396.124 643.255 396.544C644.405 400.267 645.523 403.999 646.675 407.719C646.82 408.188 646.722 408.358 646.259 408.504C642.274 409.773 638.297 411.068 634.316 412.354C634.179 412.398 634.04 412.431 633.849 412.483C633.751 412.216 633.641 411.967 633.57 411.711C630.891 403.248 628.211 394.79 625.529 386.337C625.403 385.933 625.54 385.813 625.879 385.677C632.414 383.095 638.947 380.507 645.477 377.913C651.872 375.376 658.266 372.837 664.66 370.297C665.62 369.916 666.585 369.541 667.545 369.16C667.71 369.1 667.853 369.017 668.107 368.896Z" fill="#FA7E14"/>
</g>
<g filter="url(#filter3_d_223_126)">
<path d="M131.232 350.774L131.218 350.807C131.211 350.826 131.204 350.845 131.188 350.861C131.129 350.916 131.048 350.94 130.969 350.927L119.876 349.11L128.388 340.592L132.152 349.451C132.162 349.476 132.167 349.502 132.167 349.529L132.167 349.564C132.16 349.576 132.15 349.587 132.127 349.611C131.76 349.941 131.457 350.335 131.232 350.774ZM130.556 338.419L139.654 329.311C141.546 327.419 142.49 326.472 143.583 326.127C143.745 326.075 143.907 326.033 144.074 326L134.866 347.766C134.861 347.778 134.856 347.79 134.852 347.802C134.817 347.888 134.777 347.99 134.687 347.99C134.598 347.99 134.556 347.886 134.521 347.799L134.509 347.771L130.556 338.419ZM146.994 326.371C147.877 326.841 148.792 327.758 150.343 329.309L160.598 339.577L157.836 352.858L157.822 352.929C157.803 353.046 157.782 353.171 157.676 353.171C156.57 353.273 155.556 353.83 154.876 354.71C154.822 354.764 154.737 354.75 154.66 354.733C154.648 354.733 154.637 354.733 154.627 354.729L139.309 352.231L139.258 352.222C139.14 352.207 139.004 352.186 139.004 352.081C138.87 350.999 138.307 350.017 137.443 349.355C137.42 349.334 137.394 349.319 137.38 349.291C137.345 349.216 137.38 349.127 137.413 349.049L146.994 326.374L146.994 326.371ZM162.957 341.939L179.825 358.824L162.08 355.934L162.056 355.93C162.033 355.927 162.009 355.922 161.988 355.915C161.932 355.892 161.908 355.831 161.885 355.772L161.873 355.744C161.603 355.111 161.187 354.551 160.66 354.111C160.594 354.054 160.53 353.986 160.519 353.899C160.515 353.877 160.515 353.854 160.519 353.831L162.96 341.941L162.957 341.939ZM183.395 362.399L185.296 364.302L154.918 385.344C154.907 385.352 154.896 385.36 154.885 385.368C154.841 385.401 154.796 385.436 154.745 385.429C154.707 385.427 154.674 385.403 154.646 385.377L154.615 385.354C154.522 385.29 154.428 385.236 154.327 385.178L154.245 385.131L154.238 385.124C154.181 385.091 154.127 385.06 154.097 385.004C154.073 384.954 154.083 384.886 154.094 384.832L158.897 361.52C158.907 361.455 158.934 361.393 158.974 361.341C159.005 361.311 159.038 361.304 159.075 361.296C160.321 360.967 161.341 360.073 161.833 358.881C161.866 358.815 161.939 358.843 162.016 358.874C162.05 358.889 162.086 358.901 162.122 358.909C163.906 359.203 179.252 361.722 183.395 362.399ZM187.364 366.374C188.751 367.777 189.486 368.604 189.782 369.54C190.073 370.462 190.073 371.451 189.782 372.373C189.434 373.468 188.491 374.415 186.599 376.307L165.49 397.439L156.939 391.919C156.897 391.893 156.859 391.867 156.829 391.825C156.787 391.766 156.805 391.682 156.829 391.611C157.211 390.344 157.142 388.984 156.634 387.762C156.611 387.699 156.594 387.635 156.639 387.586C156.661 387.561 156.686 387.539 156.714 387.52L187.366 366.374L187.364 366.374ZM163.455 399.476L158.613 404.324L154.533 394.751C154.523 394.726 154.517 394.7 154.517 394.673C154.517 394.593 154.597 394.546 154.669 394.504C154.817 394.408 154.961 394.306 155.101 394.198L155.139 394.168C155.179 394.14 155.219 394.159 155.256 394.187L163.455 399.474L163.455 399.476ZM156.47 406.469L150.343 412.602C149.301 413.645 148.545 414.402 147.895 414.928L151.759 396.28C151.763 396.257 151.767 396.233 151.771 396.21C151.789 396.095 151.81 395.968 151.918 395.968C152.036 395.968 152.09 396.107 152.134 396.224L152.158 396.278L156.47 406.469ZM144.745 416C144.351 415.979 143.96 415.908 143.583 415.789C142.49 415.441 141.546 414.496 139.654 412.602L131.814 404.754C137.053 401.14 142.285 397.517 147.51 393.884C147.595 393.82 147.689 393.75 147.759 393.823C148.137 394.166 148.55 394.509 148.998 394.751C149.056 394.777 149.106 394.817 149.144 394.868C149.163 394.899 149.156 394.932 149.149 394.967L149.149 394.972L144.743 416L144.745 416ZM129.716 402.653L119.175 392.1C119.609 391.108 121.132 387.499 122.494 384.271C123.526 381.827 124.465 379.599 124.77 378.899C124.799 378.828 124.827 378.765 124.897 378.734C124.939 378.716 124.993 378.725 125.038 378.734C126.584 379.074 128.196 378.612 129.329 377.505C129.399 377.435 129.5 377.505 129.587 377.567L129.636 377.599L146.215 388.315C146.262 388.343 146.302 388.369 146.332 388.416C146.367 388.472 146.351 388.552 146.334 388.618C146.225 389.034 146.167 389.463 146.161 389.894C146.161 390.279 146.231 390.697 146.309 391.12L146.309 391.123C146.316 391.17 146.325 391.212 146.297 391.249C146.263 391.291 146.223 391.327 146.177 391.355L129.716 402.653ZM117.046 389.969L103.399 376.307C101.509 374.415 100.563 373.468 100.218 372.373C99.9272 371.451 99.9272 370.462 100.218 369.54C100.563 368.445 101.509 367.498 103.399 365.606L106.356 362.645L121.388 372.362C121.432 372.386 121.47 372.419 121.501 372.458C121.541 372.517 121.524 372.599 121.501 372.67C121.029 374.225 121.354 375.913 122.369 377.181C122.435 377.245 122.397 377.339 122.362 377.419C121.811 378.687 117.644 388.557 117.046 389.969ZM108.417 360.582L117.379 351.611L130.754 353.772L130.789 353.772C130.819 353.774 130.849 353.781 130.878 353.791C130.925 353.815 130.934 353.862 130.948 353.909C131.088 354.371 131.305 354.806 131.589 355.196C131.601 355.213 131.614 355.229 131.629 355.243C131.657 355.269 131.683 355.295 131.688 355.337C131.689 355.372 131.683 355.406 131.671 355.438L125.869 369.11L125.857 369.135C125.822 369.222 125.78 369.326 125.691 369.326C124.93 369.406 124.196 369.655 123.543 370.054C123.435 370.12 123.322 370.193 123.212 370.136L108.417 360.582ZM128.618 369.822L134.04 357.006C134.072 356.935 134.103 356.858 134.176 356.827C134.22 356.815 134.266 356.815 134.31 356.827C134.497 356.865 134.711 356.898 134.927 356.898L135.286 356.898C135.375 356.898 135.413 356.989 135.448 357.074L135.457 357.1C136.323 359.13 147.6 385.603 147.6 385.643C147.6 385.683 147.6 385.725 147.56 385.765C147.489 385.836 147.391 385.765 147.301 385.702C147.286 385.69 147.27 385.679 147.255 385.669L130.965 375.137L130.937 375.118C130.838 375.057 130.728 374.986 130.728 374.874L130.744 374.768C130.777 374.528 130.807 374.317 130.807 374.103C130.807 372.505 130.031 371.025 128.702 370.132C128.667 370.11 128.635 370.083 128.608 370.052C128.561 369.988 128.585 369.894 128.618 369.822ZM150.177 384.498L137.884 355.643C137.884 355.643 137.884 355.601 137.924 355.561C138.082 355.403 138.187 355.269 138.286 355.14L138.326 355.077C138.359 355.018 138.396 354.959 138.457 354.954C138.481 354.954 138.495 354.954 138.516 354.959L153.684 357.431L153.745 357.44C153.862 357.457 153.996 357.473 153.996 357.584C154.086 358.922 154.83 360.129 155.984 360.81L156.003 360.822C156.057 360.855 156.108 360.885 156.136 360.939C156.16 360.989 156.15 361.052 156.139 361.104L151.397 384.115C151.393 384.139 150.179 384.473 150.177 384.498Z" fill="url(#paint8_radial_223_126)"/>
</g>
<g filter="url(#filter4_d_223_126)">
<path d="M619.047 592.297C617.753 594.519 615.238 595.977 612.666 595.981C599.782 596.101 586.901 596.23 574.017 596.346C571.596 596.371 569.2 595.044 568.003 592.928L548.937 559.903C547.657 557.719 547.798 554.862 549.145 552.743C555.676 541.694 562.198 530.642 568.727 519.593C570.048 517.327 572.666 515.931 575.282 516.048C579.156 516.055 583.03 516.051 586.904 516.056C587.701 516.067 588.533 515.962 589.284 516.295C589.202 517.008 588.575 517.453 588.163 517.981C587.174 519.066 586.418 520.327 585.652 521.57C585.481 521.925 585.095 522.05 584.726 522.033C581.422 522.043 578.116 521.999 574.811 522.027C574.103 522.027 573.8 522.745 573.492 523.26C567.091 534.116 560.667 544.958 554.268 555.815C554.014 556.187 554.035 556.673 554.286 557.042C560.569 567.94 566.865 578.834 573.153 589.729C573.366 590.19 573.851 590.446 574.35 590.396C587.136 590.259 599.922 590.134 612.707 589.999C612.941 590.018 613.174 589.965 613.377 589.848C613.58 589.731 613.743 589.556 613.845 589.345C620.353 578.338 626.85 567.324 633.36 556.32C633.651 555.913 633.687 555.365 633.387 554.953C627.095 544.06 620.806 533.163 614.515 522.267C614.424 522.069 614.273 521.904 614.085 521.794C613.896 521.685 613.679 521.635 613.461 521.653C610.044 521.679 606.629 521.718 603.213 521.75C601.311 521.807 599.261 522.372 598.008 523.893C596.889 525.214 596.731 527.225 597.623 528.708C603.863 539.546 610.137 550.367 616.372 561.205C616.685 561.666 616.458 562.326 615.965 562.551C614.733 563.273 613.499 563.997 612.25 564.691C611.741 565.001 611.087 564.688 610.871 564.167C604.583 553.265 598.272 542.376 592.001 531.464C590.321 528.562 589.689 524.712 591.555 521.739C593.876 518.114 598.177 516.115 602.396 515.871C606.043 515.65 609.707 515.758 613.362 515.666C615.871 515.551 618.414 516.869 619.665 519.068L638.732 552.093C639.993 554.23 639.918 557.033 638.619 559.135C632.093 570.187 625.57 581.243 619.047 592.297Z" fill="#8CC84B"/>
<path d="M597.393 574.297C593.328 577.006 588.744 579.505 583.743 579.619C579.881 579.723 576.319 577.32 574.38 574.081C574.208 573.593 574.528 573.084 574.967 572.871C576.193 572.166 577.407 571.44 578.647 570.758C579.155 570.438 579.734 570.742 580.064 571.164C581.319 572.525 583.066 573.581 584.973 573.485C587.886 573.312 590.472 571.743 592.922 570.297C594.666 569.163 596.51 567.891 597.423 565.953C598.13 564.477 597.552 562.654 596.382 561.593C595.449 560.885 594.195 561.207 593.151 561.438C587.294 563.045 581.979 566.291 575.977 567.421C573.498 567.9 570.675 567.679 568.719 565.924C566.119 563.559 564.524 559.858 565.243 556.339C565.81 553.458 567.645 551.008 569.748 549.039C572.565 546.451 575.91 544.496 579.378 542.92C582.668 541.49 586.35 540.446 589.948 541.173C593.007 541.766 595.595 543.949 597.033 546.667C597.268 547.13 597.002 547.702 596.55 547.914C595.322 548.636 594.09 549.351 592.848 550.049C592.376 550.368 591.765 550.154 591.471 549.704C590.383 548.345 588.921 547.105 587.112 546.972C583.67 546.802 580.588 548.729 577.691 550.341C575.374 551.82 572.722 553.393 571.689 556.086C571.183 557.574 571.745 559.249 572.767 560.38C573.696 561.296 575.129 561.146 576.3 560.913C582.24 559.601 587.359 555.877 593.371 554.802C595.803 554.35 598.535 554.572 600.508 556.198C603.286 558.51 604.887 562.428 603.907 565.993C602.976 569.514 600.265 572.228 597.393 574.297L597.393 574.297Z" fill="#8CC84B"/>
</g>
<g filter="url(#filter5_d_223_126)">
<path d="M195.699 590.308C195.863 590.441 196.396 590.863 196.865 591.255C203.627 596.733 212.243 600.168 221.274 600.967C222.933 601.123 227.066 601.123 228.725 600.967C237.654 600.176 245.488 597.101 252.821 591.521C254.449 590.284 259.285 585.448 260.522 583.82C266.102 576.487 269.177 568.653 269.968 559.724C270.124 558.065 270.124 553.933 269.968 552.273C269.177 543.344 266.102 535.51 260.522 528.177C259.285 526.549 254.449 521.713 252.821 520.477C245.488 514.897 237.654 511.821 228.725 511.031C227.066 510.874 222.933 510.874 221.274 511.031C212.345 511.821 204.511 514.897 197.178 520.477C195.55 521.713 190.714 526.549 189.477 528.177C183.897 535.51 180.822 543.344 180.031 552.273C179.875 553.933 179.875 558.065 180.031 559.724C180.822 568.622 183.921 576.542 189.438 583.765C190.033 584.548 190.996 585.589 192.835 587.459C194.236 588.891 195.535 590.175 195.699 590.308ZM198.689 586.536C199.604 585.62 201.529 583.57 203.329 581.597C204.206 580.627 205.474 579.25 206.139 578.537C208.495 576.01 214.646 569.342 215.178 568.732L215.71 568.121L216.023 568.512C216.203 568.724 216.336 568.951 216.344 569.005C216.336 569.06 215.851 569.655 215.248 570.32C212.603 573.247 202.257 584.517 200.723 586.144L199.033 587.929L198.782 587.741C198.649 587.639 198.43 587.467 198.297 587.35L198.078 587.146L198.689 586.536ZM191.011 579.234C191.011 579.218 193.351 576.831 196.208 573.928C199.064 571.009 201.615 568.379 201.874 568.074C202.14 567.761 202.398 567.518 202.453 567.542C202.508 567.55 202.703 567.745 202.875 567.965L203.204 568.356L200.982 570.688C199.753 571.979 198.399 573.411 197.961 573.881C196.638 575.329 191.99 580.087 191.825 580.157C191.708 580.212 191.614 580.134 191.34 579.751C191.16 579.477 191.011 579.25 191.011 579.234ZM211.734 594.714C211.758 594.596 215.702 589.916 220.891 583.82C222.66 581.754 224.264 579.852 224.46 579.61C224.82 579.171 224.843 579.164 225.25 579.257C225.477 579.312 225.688 579.383 225.72 579.414C225.743 579.437 225.586 579.688 225.36 579.962C224.452 581.089 219.96 586.426 216.704 590.276C214.787 592.538 213.073 594.565 212.893 594.792C212.588 595.176 212.548 595.199 212.235 595.105C211.852 594.988 211.688 594.87 211.734 594.714ZM191.763 571.596C191.622 571.298 191.637 571.236 192.036 570.743C192.741 569.882 196.505 566.165 196.591 566.251C196.818 566.478 197.022 567.213 196.912 567.401C196.842 567.518 195.754 568.653 194.494 569.913C191.95 572.457 192.13 572.339 191.763 571.596ZM206.585 585.683C206.796 585.471 207.908 584.25 209.074 582.959C210.24 581.668 211.727 580.04 212.368 579.336C213.675 577.919 213.613 577.951 214.168 578.444C214.434 578.694 214.434 578.694 214.059 579.101C213.855 579.336 213.214 580.056 212.634 580.729C212.048 581.394 210.788 582.842 209.817 583.937C208.847 585.033 207.9 586.137 207.704 586.379C207.36 586.817 207.336 586.825 207.047 586.692C206.875 586.614 206.616 586.434 206.475 586.293C206.217 586.05 206.217 586.05 206.585 585.683ZM185.948 562.901L185.791 562.526L186.785 561.422C187.333 560.827 188.554 559.575 189.501 558.659L191.23 556.977L191.395 557.47L191.567 557.955L188.992 560.577C187.576 562.025 186.355 563.23 186.284 563.269C186.136 563.355 186.136 563.355 185.948 562.901ZM201.263 576.166C201.263 576.072 204.949 572.167 206.867 570.234L208.017 569.068L208.33 569.491C208.518 569.725 208.667 569.921 208.667 569.937C208.675 569.976 203.11 576.01 202.547 576.573L201.968 577.152L201.616 576.706C201.42 576.448 201.263 576.213 201.263 576.166ZM183.796 557.587C183.811 557.384 185.51 555.654 194.94 546.177C205.771 535.299 206.053 535.017 206.194 535.158C206.28 535.244 206.35 535.409 206.366 535.534C206.397 535.737 205.466 536.7 196.231 546.013C190.643 551.663 185.58 556.805 184.985 557.446L183.905 558.62L183.843 558.229C183.804 558.002 183.788 557.72 183.796 557.587ZM192.42 563.003C192.412 562.932 192.819 562.447 193.32 561.931C195.01 560.162 205.607 549.55 205.677 549.558C205.708 549.558 205.81 549.738 205.904 549.957L206.068 550.356L199.409 557.016L192.756 563.668L192.584 563.402C192.498 563.253 192.42 563.081 192.42 563.003ZM214.458 584.164C214.646 583.93 215.084 583.413 215.452 582.998C215.812 582.591 216.634 581.66 217.267 580.932C218.551 579.461 218.653 579.391 219.099 579.837C219.334 580.071 219.341 580.126 219.138 580.392C218.754 580.932 215.178 585.057 215.076 585.08C214.982 585.096 214.434 584.83 214.231 584.657C214.176 584.618 214.278 584.391 214.458 584.164ZM229.398 595.113C230.141 594.197 231.706 592.288 232.872 590.871C234.031 589.447 235.017 588.242 235.064 588.195C235.158 588.101 236.058 588.406 236.058 588.531C236.058 588.61 229.914 596.318 229.601 596.631C229.413 596.819 228.02 597.007 228.028 596.842C228.02 596.803 228.639 596.029 229.398 595.113ZM199.534 563.606L199.44 563.246L201.122 561.547C202.038 560.616 203.055 559.567 203.392 559.231C204.081 558.511 204.284 558.479 204.558 559.051L204.715 559.379L204.042 560.053C203.666 560.428 202.602 561.539 201.67 562.533L199.98 564.318L199.8 564.138C199.706 564.044 199.589 563.801 199.534 563.606ZM229.82 587.819C231.182 586.176 233.491 583.413 234.939 581.668L237.568 578.506L238.178 578.506L238.781 578.498L238.218 579.171C237.905 579.547 236.465 581.3 235.017 583.077C233.569 584.853 231.464 587.428 230.337 588.79L228.302 591.263L227.715 591.239C227.183 591.223 227.144 591.2 227.23 591.004C227.277 590.895 228.443 589.463 229.82 587.819ZM236.629 592.734C237.998 591.02 241.645 586.465 244.721 582.607C247.797 578.749 250.77 575.039 251.326 574.343C251.89 573.654 252.727 572.598 253.204 571.995C254.01 570.97 254.073 570.907 254.292 570.938C254.621 570.985 254.683 571.079 254.519 571.244C254.449 571.314 253.924 571.979 253.369 572.707C252.437 573.92 250.857 575.971 247.304 580.572C246.591 581.504 245.167 583.35 244.134 584.681C243.109 586.019 241.575 588.007 240.73 589.103C239.885 590.198 238.437 592.069 237.498 593.274C236.574 594.479 235.713 595.512 235.588 595.59C235.322 595.747 234.125 596.021 234.125 595.927C234.132 595.888 235.252 594.456 236.629 592.734ZM242.397 591.756C243.218 590.699 244.713 588.766 245.731 587.451C246.74 586.144 248 584.509 248.517 583.82L249.464 582.576L249.769 582.599C249.941 582.615 250.066 582.677 250.066 582.74C250.066 582.803 249.816 583.178 249.518 583.57C249.221 583.961 247.499 586.262 245.707 588.68L242.428 593.07L241.716 593.422C241.332 593.618 240.996 593.751 240.972 593.728C240.941 593.696 241.591 592.812 242.397 591.756ZM198.407 549.816C198.407 549.597 198.876 549.096 202.469 545.504L206.53 541.442L206.749 541.661C207.227 542.139 207.336 542.014 202.922 546.49L198.9 550.56L198.649 550.309C198.516 550.176 198.399 549.949 198.407 549.816ZM216.939 565.546C215.436 563.512 214.387 561.477 213.644 559.168C213.167 557.673 213.049 556.852 213.002 554.707C212.932 551.522 213.292 549.159 214.278 546.294C215.71 542.123 217.659 539.11 223.638 531.785C226.314 528.498 231.323 522.691 233.452 520.39C234.07 519.725 235.072 518.614 235.674 517.917C236.965 516.454 236.676 516.54 238.476 517.166C240.972 518.035 243.156 519.091 245.817 520.703C249.072 522.676 250.966 524.163 253.557 526.737L255.443 528.608L254.527 529.492C254.034 529.985 252.837 531.089 251.89 531.942C247.296 536.066 241.841 541.615 239.094 544.972C237.513 546.897 235.721 549.362 235.439 550.02C235.377 550.16 235.111 550.067 234.07 549.558C232.16 548.634 230.313 548.024 229.82 548.141C228.905 548.384 228.678 549.816 229.445 550.583C229.578 550.716 230.118 550.974 230.65 551.178C233.209 552.125 237.67 554.692 239.908 556.507C241.458 557.76 243.547 560.021 244.784 561.806C245.457 562.776 246.372 564.803 246.967 566.665C247.648 568.818 247.538 570.665 246.638 572.081C246.153 572.848 244.862 574.061 243.978 574.585C243.007 575.164 241.332 575.744 240.174 575.9C235.009 576.604 227.864 574.546 222.253 570.719C220.468 569.498 218.308 567.401 216.939 565.546ZM193.038 541.161C192.874 540.761 192.874 540.699 193.14 540.433C195.261 538.281 200.191 533.444 200.434 533.28C200.512 533.217 200.927 533.616 201.036 533.851C201.107 534 200.7 534.438 197.249 537.889C194.776 540.362 193.351 541.724 193.304 541.677C193.265 541.638 193.14 541.403 193.038 541.161ZM193.915 533.444L193.75 533.045L200.285 526.62C208.604 518.426 208.855 518.191 209.864 517.777C211.515 517.096 211.727 516.837 206.562 521.909C203.987 524.452 201.357 527.003 200.739 527.59C200.121 528.177 198.407 529.86 196.92 531.331C195.136 533.115 194.22 533.984 194.165 533.929C194.118 533.882 194.009 533.663 193.915 533.444ZM242.929 578.561C243.516 577.88 243.594 577.833 244.322 577.559L245.104 577.277L244.416 578.154C243.312 579.555 243.258 579.61 242.772 579.5C242.545 579.461 242.342 579.383 242.334 579.344C242.326 579.304 242.592 578.944 242.929 578.561ZM252.484 578.678C253.056 577.966 256.765 573.161 258.573 570.79C261.383 567.135 261.813 566.642 261.805 567.025C261.805 567.072 260.897 568.34 259.778 569.835C252.563 579.492 252.61 579.43 252.445 579.391C252.093 579.32 252.101 579.171 252.484 578.678ZM250.434 569.459C250.583 569.217 252.477 566.869 252.735 566.611C252.954 566.392 253.439 566.47 253.439 566.72C253.439 566.799 252.876 567.565 252.187 568.411C251.498 569.272 250.778 570.164 250.59 570.398L250.246 570.837L250.285 570.25C250.301 569.921 250.371 569.569 250.434 569.459ZM247.069 560.193C247.061 560.029 247.319 559.661 248.094 558.746C249.503 557.102 249.37 557.204 249.69 557.525C250.019 557.853 250.035 557.822 248.767 559.309C247.476 560.819 247.491 560.804 247.28 560.593C247.178 560.491 247.092 560.311 247.069 560.193ZM240.988 553.878C241.051 553.784 241.481 553.275 241.943 552.751C242.412 552.234 243.453 551.053 244.251 550.129C247.194 546.748 247.585 546.341 247.718 546.474C247.867 546.623 247.765 546.756 245.707 549.159C244.846 550.145 243.508 551.718 242.733 552.649C241.951 553.573 241.285 554.332 241.246 554.324C241.066 554.332 240.91 554.034 240.988 553.878ZM257.203 567.088C257.227 566.971 259.434 564.169 262.486 560.381C263.409 559.239 264.294 558.135 264.458 557.924L264.755 557.548L264.826 557.869C264.873 558.119 264.826 558.276 264.646 558.456C264.153 558.949 261.242 562.533 259.512 564.779C258.534 566.055 257.657 567.166 257.563 567.26C257.399 567.425 257.149 567.299 257.203 567.088ZM215.311 518.653L218.637 515.437L219.122 515.343C220.226 515.131 220.327 514.983 216.641 518.622L213.268 521.963L212.681 521.971C212.368 521.971 212.079 521.948 212.048 521.917C212.024 521.893 213.495 520.422 215.311 518.653ZM227.739 520.703C232.246 516.117 232.606 515.773 232.872 515.757C233.037 515.75 233.162 515.765 233.162 515.812C233.154 515.93 223.317 525.923 223.2 525.916C223.137 525.916 223.043 525.853 222.98 525.775C222.902 525.65 223.434 525.07 227.739 520.703ZM250.184 549.378C250.614 548.838 252.743 546.318 253.76 545.144C254.449 544.361 254.472 544.338 254.699 544.455C254.824 544.518 254.926 544.635 254.918 544.706C254.918 544.815 253.353 546.725 250.888 549.613L250.301 550.309L250.058 550.067C249.831 549.84 249.831 549.808 250.184 549.378ZM259.074 552.79C259.074 552.68 259.23 552.446 259.426 552.25C259.629 552.047 260.592 550.896 261.586 549.699C264.286 546.404 264.669 545.974 264.724 546.185C264.81 546.506 264.81 546.866 264.724 546.874C264.677 546.889 264.317 547.312 263.934 547.821C263.535 548.329 262.869 549.135 262.447 549.62C262.024 550.106 261.265 551.006 260.772 551.624C259.551 553.142 259.387 553.291 259.215 553.119C259.136 553.04 259.074 552.9 259.074 552.79ZM260.639 543.821C260.788 543.626 261.382 542.937 261.962 542.295C263.081 541.067 263.19 541.004 263.269 541.568C263.292 541.732 263.057 542.092 262.259 543.078C260.811 544.854 260.882 544.8 260.608 544.463C260.404 544.213 260.404 544.15 260.639 543.821Z" fill="#EDEDED"/>
<path d="M234.469 575.579C235.635 576.041 236.801 575 236.425 573.842C236.152 573.005 235.455 572.574 234.68 572.77C233.24 573.114 233.099 575.039 234.469 575.579Z" fill="#EDEDED"/>
<path d="M229.914 569.522C231.127 569.811 232.239 568.7 231.949 567.487C231.652 566.298 230.102 565.922 229.21 566.814C228.349 567.675 228.756 569.24 229.914 569.522Z" fill="#EDEDED"/>
</g>
<g filter="url(#filter6_d_223_126)">
<path d="M638.129 199.705C638.138 199.405 638.138 199.096 638.129 198.796C638.12 198.496 638.138 198.187 638.129 197.887C638.12 197.587 638.138 197.278 638.129 196.978C638.12 196.678 638.138 196.368 638.129 196.068C638.12 195.768 638.138 195.459 638.129 195.159C638.12 194.859 638.138 194.55 638.129 194.25C638.12 193.95 638.138 193.641 638.129 193.341C638.206 202.282 634.761 210.895 628.537 217.315C613.473 232.379 585.926 229.343 567.125 210.542C556.597 200.014 551.024 186.75 550.788 174.458L550.788 175.367L550.788 176.277L550.788 177.186L550.788 178.095L550.788 179.004L550.788 179.913L550.788 180.822C550.761 193.359 556.343 207.033 567.125 217.815C585.926 236.616 613.473 239.653 628.492 224.634C634.91 218.215 638.229 209.369 638.129 199.705Z" fill="black"/>
<path d="M626.264 215.042C612.436 228.87 586.981 225.833 569.407 208.26C551.833 190.686 548.797 165.23 562.625 151.402C571.198 142.829 584.226 140.711 597.099 144.602C609.973 148.493 619.791 149.111 624.173 153.493C628.555 157.875 628.546 165.376 633.065 180.567C636.956 193.441 634.838 206.469 626.264 215.042Z" fill="#FBF0DF"/>
<path d="M626.264 215.042C628.036 213.261 629.559 211.249 630.792 209.06C598.036 236.852 559.652 201.378 554.188 177.804C555.656 189.39 561.023 200.13 569.407 208.26C586.953 225.806 612.455 228.852 626.264 215.042Z" fill="#F6DECE"/>
<path d="M604.5 148.675C611 150.302 620.973 151.13 626.292 156.43C625.739 155.349 625.025 154.359 624.173 153.493C621.973 151.293 618.491 150.084 613.827 148.839C612.2 148.411 610.473 148.011 608.654 147.575C605.227 146.766 601.318 145.82 597.108 144.575C583.771 140.602 570.88 143.147 562.625 151.402L561.543 152.484C586.517 138.529 598.008 147.057 604.5 148.675Z" fill="#FFFEFC"/>
<path fill-rule="evenodd" clip-rule="evenodd" d="M619.255 153.175C617.121 155.335 614.546 157.008 611.706 158.081C608.866 159.154 605.828 159.602 602.799 159.394C602.318 159.366 602.081 160.003 602.536 160.203C606.79 162.076 614.491 162.648 619.937 153.712C620.273 153.23 619.627 152.802 619.255 153.175ZM621.318 155.239C620.616 158.166 619.288 160.907 617.427 163.274C615.566 165.64 613.215 167.576 610.536 168.949C610.109 169.158 610.227 169.821 610.709 169.776C615.245 169.221 622.037 165.903 622.291 155.248C622.264 154.748 621.491 154.703 621.355 155.203L621.318 155.239ZM623.982 157.594C624.491 160.569 624.356 163.619 623.586 166.537C622.816 169.456 621.429 172.176 619.518 174.513C619.433 174.58 619.376 174.678 619.361 174.786C619.345 174.893 619.371 175.003 619.435 175.092C619.498 175.181 619.593 175.242 619.7 175.263C619.807 175.284 619.918 175.262 620.009 175.204C624.019 172.867 628.955 166.985 624.882 157.294C624.664 156.784 623.937 157.039 624.019 157.557L623.982 157.594ZM597.745 150.266C600.436 151.719 603.403 152.589 606.453 152.819C609.502 153.05 612.567 152.635 615.445 151.602C615.936 151.439 616.327 152.084 615.882 152.366C607.036 158.066 600.254 154.321 597.181 150.848C596.826 150.511 597.317 150.039 597.745 150.266Z" fill="#CCBEA7"/>
<path d="M567.125 210.542C548.324 191.741 545.288 164.194 560.352 149.13C569.443 140.038 583.544 137.175 598.036 141.502C602.218 142.775 606.018 143.648 609.382 144.448C611.237 144.884 612.982 145.302 614.646 145.73C619.728 147.03 623.719 148.493 626.446 151.221C629.174 153.948 630.465 157.421 631.683 162.167C632.074 163.594 632.419 165.067 632.774 166.658C633.638 170.322 634.61 174.458 636.165 179.631C640.493 194.123 637.638 208.215 628.537 217.315C613.473 232.38 585.926 229.343 567.125 210.542ZM624.174 153.494C621.973 151.294 618.491 150.084 613.828 148.839C612.2 148.412 610.473 148.012 608.655 147.575C605.227 146.766 601.318 145.821 597.109 144.575C583.772 140.602 570.88 143.148 562.625 151.403C548.815 165.212 551.852 190.723 569.398 208.269C586.944 225.816 612.455 228.852 626.265 215.042C634.52 206.787 637.065 193.896 633.065 180.568C631.447 175.313 630.474 170.922 629.647 167.403C629.265 165.803 628.919 164.331 628.592 163.003C627.474 158.612 626.374 155.694 624.174 153.494Z" fill="black"/>
<path d="M594.217 196.269C592.136 197.533 589.707 198.103 587.281 197.896C585.334 197.866 583.453 197.187 581.935 195.969C580.651 194.433 579.93 192.506 579.889 190.505C579.701 188.087 580.284 185.671 581.553 183.604C581.639 183.492 581.749 183.401 581.876 183.338C582.002 183.275 582.142 183.242 582.283 183.241C582.424 183.24 582.564 183.271 582.691 183.333C582.818 183.394 582.93 183.484 583.017 183.595L594.236 194.814C594.345 194.902 594.432 195.014 594.492 195.14C594.551 195.267 594.581 195.406 594.58 195.546C594.578 195.686 594.544 195.824 594.482 195.949C594.419 196.074 594.329 196.183 594.217 196.269Z" fill="#B71422"/>
<path d="M579.817 190.577C579.854 192.577 580.565 194.505 581.835 196.05C583.379 197.315 585.304 198.023 587.299 198.06C587.927 198.082 588.556 198.06 589.181 197.996C589.256 196.801 589.086 195.602 588.681 194.475C588.276 193.348 587.645 192.315 586.826 191.441C585.899 190.557 584.771 189.911 583.539 189.559C582.306 189.208 581.007 189.161 579.753 189.423C579.771 189.823 579.771 190.186 579.817 190.577Z" fill="#FF6164"/>
<path d="M580.68 190.005C581.714 189.873 582.764 189.977 583.751 190.309C584.738 190.641 585.637 191.193 586.381 191.923C587.702 193.325 588.451 195.17 588.481 197.096C588.917 197.078 589.354 197.041 589.781 196.996C589.726 194.738 588.824 192.583 587.254 190.959C586.393 190.113 585.355 189.468 584.216 189.07C583.076 188.673 581.863 188.532 580.662 188.659C580.644 189.108 580.65 189.557 580.68 190.005Z" fill="black"/>
<path d="M581.353 196.478C579.971 194.83 579.186 192.764 579.126 190.614C578.909 188.016 579.527 185.417 580.89 183.195C581.018 183.005 581.188 182.846 581.386 182.729C581.584 182.613 581.806 182.542 582.035 182.522C582.31 182.497 582.587 182.534 582.846 182.632C583.104 182.729 583.337 182.885 583.526 183.086L594.745 194.305C594.944 194.496 595.098 194.729 595.195 194.987C595.293 195.245 595.331 195.521 595.308 195.796C595.287 196.024 595.215 196.245 595.097 196.442C594.979 196.638 594.818 196.806 594.627 196.932C592.405 198.295 589.806 198.913 587.208 198.696C585.062 198.636 583 197.855 581.353 196.478ZM582.471 184.141C582.326 183.995 582.226 184.023 582.199 184.032C581.029 185.97 580.506 188.231 580.708 190.486C580.721 192.27 581.329 193.997 582.435 195.396C583.829 196.5 585.548 197.114 587.326 197.141C589.579 197.337 591.837 196.812 593.772 195.641C593.781 195.592 593.777 195.542 593.759 195.495C593.741 195.449 593.711 195.408 593.672 195.378L582.471 184.141Z" fill="black"/>
<path d="M601.081 204.26C604.019 207.197 607.8 208.178 609.527 206.451C611.255 204.724 610.274 200.942 607.336 198.005C604.399 195.068 600.618 194.087 598.89 195.814C597.163 197.541 598.144 201.323 601.081 204.26Z" fill="#FEBBD0"/>
<path d="M573.562 176.74C576.499 179.678 580.281 180.659 582.008 178.931C583.735 177.204 582.754 173.423 579.817 170.485C576.879 167.548 573.098 166.567 571.371 168.294C569.644 170.022 570.625 173.803 573.562 176.74Z" fill="#FEBBD0"/>
<path fill-rule="evenodd" clip-rule="evenodd" d="M580.444 174.858C581.433 175.851 582.695 176.528 584.069 176.804C585.444 177.08 586.869 176.942 588.165 176.407C589.46 175.872 590.568 174.965 591.348 173.801C592.128 172.636 592.545 171.266 592.547 169.865C592.548 168.463 592.133 167.092 591.355 165.926C590.578 164.76 589.471 163.851 588.176 163.314C586.882 162.777 585.457 162.637 584.082 162.91C582.707 163.183 581.444 163.858 580.453 164.849C579.126 166.176 578.38 167.975 578.378 169.852C578.376 171.728 579.119 173.529 580.444 174.858ZM602.963 197.378C603.948 198.377 605.208 199.062 606.583 199.344C607.957 199.627 609.385 199.495 610.684 198.965C611.984 198.435 613.096 197.531 613.881 196.367C614.666 195.204 615.088 193.834 615.093 192.431C615.098 191.027 614.686 189.654 613.91 188.485C613.134 187.316 612.027 186.404 610.732 185.865C609.436 185.325 608.01 185.183 606.633 185.455C605.257 185.728 603.992 186.403 603 187.395C601.674 188.716 600.926 190.508 600.919 192.379C600.913 194.25 601.648 196.048 602.963 197.378Z" fill="black"/>
<path fill-rule="evenodd" clip-rule="evenodd" d="M583.589 168.622C583.96 168.996 584.434 169.252 584.95 169.357C585.467 169.462 586.002 169.411 586.49 169.211C586.978 169.012 587.395 168.671 587.689 168.234C587.983 167.797 588.141 167.282 588.142 166.755C588.143 166.228 587.988 165.713 587.696 165.274C587.404 164.836 586.989 164.494 586.502 164.291C586.015 164.089 585.48 164.036 584.963 164.138C584.446 164.241 583.971 164.494 583.599 164.867C583.101 165.365 582.821 166.039 582.819 166.742C582.817 167.446 583.094 168.122 583.589 168.622ZM606.109 191.141C606.48 191.515 606.953 191.771 607.47 191.876C607.986 191.981 608.522 191.931 609.009 191.731C609.497 191.531 609.914 191.191 610.208 190.754C610.502 190.316 610.66 189.802 610.661 189.275C610.662 188.748 610.507 188.232 610.215 187.794C609.923 187.355 609.508 187.013 609.021 186.811C608.535 186.608 607.999 186.555 607.482 186.658C606.965 186.76 606.491 187.014 606.118 187.386C605.623 187.881 605.343 188.55 605.338 189.249C605.333 189.948 605.603 190.621 606.091 191.123L606.109 191.141Z" fill="white"/>
</g>
<g filter="url(#filter7_d_223_126)">
<path d="M222 121.36L158.361 185L222 248.64L285.64 185L222 121.36Z" fill="#F7DF1E"/>
<path d="M250.829 191.969C254.204 192.78 257.41 192.651 260.36 189.701C262.838 187.223 263.182 184.402 261.471 182.691C259.42 180.64 257.068 181.54 253.147 183.075L251.011 183.928C244.857 186.405 239.687 186.969 234.818 182.1C230.333 177.615 230.336 170.783 235.677 165.442C239.479 161.64 243.536 160.23 248.97 161.725L247.304 169.372C244.44 168.559 242.609 168.941 240.892 170.658C239.141 172.409 239.142 174.631 240.593 176.082C242.387 177.876 244.225 177.491 247.902 176.037L250.037 175.182C257.297 172.28 262.387 171.633 267.381 176.627C272.766 182.011 271.486 189.19 265.806 194.87C260.252 200.424 254.017 201.365 248.793 199.652L250.829 191.969ZM230.222 213.613C232.828 214.34 235.092 214.894 237.147 212.84C239.111 210.875 239.582 208.867 236.593 205.878L216.259 185.543L222.239 179.563L242.654 199.979C248.846 206.171 248.034 212.62 242.735 217.919C237.947 222.707 232.696 223.002 228.301 221.428L230.222 213.613Z" fill="black"/>
</g>
<defs>
<filter id="filter0_d_223_126" x="292" y="0" width="228" height="218.188" filterUnits="userSpaceOnUse" color-interpolation-filters="sRGB">
<feFlood flood-opacity="0" result="BackgroundImageFix"/>
<feColorMatrix in="SourceAlpha" type="matrix" values="0 0 0 0 0 0 0 0 0 0 0 0 0 0 0 0 0 0 127 0" result="hardAlpha"/>
<feOffset/>
<feGaussianBlur stdDeviation="32"/>
<feComposite in2="hardAlpha" operator="out"/>
<feColorMatrix type="matrix" values="0 0 0 0 1 0 0 0 0 0.78 0 0 0 0 0 0 0 0 0.47 0"/>
<feBlend mode="normal" in2="BackgroundImageFix" result="effect1_dropShadow_223_126"/>
<feBlend mode="normal" in="SourceGraphic" in2="effect1_dropShadow_223_126" result="shape"/>
</filter>
<filter id="filter1_d_223_126" x="323.5" y="552.736" width="166.863" height="156.527" filterUnits="userSpaceOnUse" color-interpolation-filters="sRGB">
<feFlood flood-opacity="0" result="BackgroundImageFix"/>
<feColorMatrix in="SourceAlpha" type="matrix" values="0 0 0 0 0 0 0 0 0 0 0 0 0 0 0 0 0 0 127 0" result="hardAlpha"/>
<feOffset/>
<feGaussianBlur stdDeviation="20"/>
<feColorMatrix type="matrix" values="0 0 0 0 0.380392 0 0 0 0 0.854902 0 0 0 0 0.984314 0 0 0 1 0"/>
<feBlend mode="normal" in2="BackgroundImageFix" result="effect1_dropShadow_223_126"/>
<feBlend mode="normal" in="SourceGraphic" in2="effect1_dropShadow_223_126" result="shape"/>
</filter>
<filter id="filter2_d_223_126" x="525.483" y="225.517" width="290" height="286.966" filterUnits="userSpaceOnUse" color-interpolation-filters="sRGB">
<feFlood flood-opacity="0" result="BackgroundImageFix"/>
<feColorMatrix in="SourceAlpha" type="matrix" values="0 0 0 0 0 0 0 0 0 0 0 0 0 0 0 0 0 0 127 0" result="hardAlpha"/>
<feOffset/>
<feGaussianBlur stdDeviation="50"/>
<feComposite in2="hardAlpha" operator="out"/>
<feColorMatrix type="matrix" values="0 0 0 0 1 0 0 0 0 0.78 0 0 0 0 0 0 0 0 1 0"/>
<feBlend mode="normal" in2="BackgroundImageFix" result="effect1_dropShadow_223_126"/>
<feBlend mode="normal" in="SourceGraphic" in2="effect1_dropShadow_223_126" result="shape"/>
</filter>
<filter id="filter3_d_223_126" x="0" y="226" width="290" height="290" filterUnits="userSpaceOnUse" color-interpolation-filters="sRGB">
<feFlood flood-opacity="0" result="BackgroundImageFix"/>
<feColorMatrix in="SourceAlpha" type="matrix" values="0 0 0 0 0 0 0 0 0 0 0 0 0 0 0 0 0 0 127 0" result="hardAlpha"/>
<feOffset/>
<feGaussianBlur stdDeviation="50"/>
<feComposite in2="hardAlpha" operator="out"/>
<feColorMatrix type="matrix" values="0 0 0 0 0 0 0 0 0 0.785714 0 0 0 0 1 0 0 0 1 0"/>
<feBlend mode="normal" in2="BackgroundImageFix" result="effect1_dropShadow_223_126"/>
<feBlend mode="normal" in="SourceGraphic" in2="effect1_dropShadow_223_126" result="shape"/>
</filter>
<filter id="filter4_d_223_126" x="488.052" y="455.659" width="211.585" height="200.687" filterUnits="userSpaceOnUse" color-interpolation-filters="sRGB">
<feFlood flood-opacity="0" result="BackgroundImageFix"/>
<feColorMatrix in="SourceAlpha" type="matrix" values="0 0 0 0 0 0 0 0 0 0 0 0 0 0 0 0 0 0 127 0" result="hardAlpha"/>
<feOffset/>
<feGaussianBlur stdDeviation="30"/>
<feComposite in2="hardAlpha" operator="out"/>
<feColorMatrix type="matrix" values="0 0 0 0 0.631373 0 0 0 0 0.882353 0 0 0 0 0.298039 0 0 0 1 0"/>
<feBlend mode="normal" in2="BackgroundImageFix" result="effect1_dropShadow_223_126"/>
<feBlend mode="normal" in="SourceGraphic" in2="effect1_dropShadow_223_126" result="shape"/>
</filter>
<filter id="filter5_d_223_126" x="119.914" y="450.913" width="210.171" height="210.171" filterUnits="userSpaceOnUse" color-interpolation-filters="sRGB">
<feFlood flood-opacity="0" result="BackgroundImageFix"/>
<feColorMatrix in="SourceAlpha" type="matrix" values="0 0 0 0 0 0 0 0 0 0 0 0 0 0 0 0 0 0 127 0" result="hardAlpha"/>
<feOffset/>
<feGaussianBlur stdDeviation="30"/>
<feComposite in2="hardAlpha" operator="out"/>
<feColorMatrix type="matrix" values="0 0 0 0 0.60375 0 0 0 0 0.63315 0 0 0 0 0.7875 0 0 0 1 0"/>
<feBlend mode="normal" in2="BackgroundImageFix" result="effect1_dropShadow_223_126"/>
<feBlend mode="normal" in="SourceGraphic" in2="effect1_dropShadow_223_126" result="shape"/>
</filter>
<filter id="filter6_d_223_126" x="490.774" y="79.522" width="207.373" height="214.653" filterUnits="userSpaceOnUse" color-interpolation-filters="sRGB">
<feFlood flood-opacity="0" result="BackgroundImageFix"/>
<feColorMatrix in="SourceAlpha" type="matrix" values="0 0 0 0 0 0 0 0 0 0 0 0 0 0 0 0 0 0 127 0" result="hardAlpha"/>
<feOffset/>
<feGaussianBlur stdDeviation="30"/>
<feComposite in2="hardAlpha" operator="out"/>
<feColorMatrix type="matrix" values="0 0 0 0 0.996078 0 0 0 0 0.733333 0 0 0 0 0.815686 0 0 0 0.7 0"/>
<feBlend mode="normal" in2="BackgroundImageFix" result="effect1_dropShadow_223_126"/>
<feBlend mode="normal" in="SourceGraphic" in2="effect1_dropShadow_223_126" result="shape"/>
</filter>
<filter id="filter7_d_223_126" x="108.361" y="71.3604" width="227.279" height="227.279" filterUnits="userSpaceOnUse" color-interpolation-filters="sRGB">
<feFlood flood-opacity="0" result="BackgroundImageFix"/>
<feColorMatrix in="SourceAlpha" type="matrix" values="0 0 0 0 0 0 0 0 0 0 0 0 0 0 0 0 0 0 127 0" result="hardAlpha"/>
<feOffset/>
<feGaussianBlur stdDeviation="25"/>
<feComposite in2="hardAlpha" operator="out"/>
<feColorMatrix type="matrix" values="0 0 0 0 0.968627 0 0 0 0 0.87451 0 0 0 0 0.117647 0 0 0 0.5 0"/>
<feBlend mode="normal" in2="BackgroundImageFix" result="effect1_dropShadow_223_126"/>
<feBlend mode="normal" in="SourceGraphic" in2="effect1_dropShadow_223_126" result="shape"/>
</filter>
<linearGradient id="paint0_linear_223_126" x1="374.746" y1="152.889" x2="336.345" y2="91.1315" gradientUnits="userSpaceOnUse">
<stop stop-color="#EB6F07"/>
<stop offset="1" stop-color="#FAB743"/>
</linearGradient>
<linearGradient id="paint1_linear_223_126" x1="386.654" y1="145.255" x2="366.881" y2="124.92" gradientUnits="userSpaceOnUse">
<stop stop-color="#D96504"/>
<stop offset="1" stop-color="#D96504" stop-opacity="0"/>
</linearGradient>
<linearGradient id="paint2_linear_223_126" x1="380.133" y1="67.4133" x2="390.6" y2="84.2271" gradientUnits="userSpaceOnUse">
<stop stop-color="#EB6F07"/>
<stop offset="1" stop-color="#EB720A" stop-opacity="0"/>
</linearGradient>
<linearGradient id="paint3_linear_223_126" x1="430.998" y1="154.164" x2="396.613" y2="82.5143" gradientUnits="userSpaceOnUse">
<stop stop-color="#EE6F05"/>
<stop offset="1" stop-color="#FAB743"/>
</linearGradient>
<linearGradient id="paint4_linear_223_126" x1="395.782" y1="154.188" x2="450.836" y2="140.215" gradientUnits="userSpaceOnUse">
<stop stop-color="#D96504" stop-opacity="0.8"/>
<stop offset="0.498" stop-color="#D96504" stop-opacity="0.2"/>
<stop offset="1" stop-color="#D96504" stop-opacity="0"/>
</linearGradient>
<linearGradient id="paint5_linear_223_126" x1="405.906" y1="154.164" x2="370.819" y2="83.4133" gradientUnits="userSpaceOnUse">
<stop stop-color="#FFA95F"/>
<stop offset="1" stop-color="#FFEBC8"/>
</linearGradient>
<linearGradient id="paint6_linear_223_126" x1="405.959" y1="64.9918" x2="435.22" y2="69.5919" gradientUnits="userSpaceOnUse">
<stop stop-color="white" stop-opacity="0.5"/>
<stop offset="1" stop-color="white" stop-opacity="0.1"/>
</linearGradient>
<linearGradient id="paint7_linear_223_126" x1="378.178" y1="157.433" x2="414.345" y2="152.105" gradientUnits="userSpaceOnUse">
<stop stop-color="white" stop-opacity="0.5"/>
<stop offset="1" stop-color="white" stop-opacity="0.1"/>
</linearGradient>
<radialGradient id="paint8_radial_223_126" cx="0" cy="0" r="1" gradientUnits="userSpaceOnUse" gradientTransform="translate(55 371) rotate(-90) scale(89.9999)">
<stop stop-color="#20C6B7"/>
<stop offset="1" stop-color="#4D9ABF"/>
</radialGradient>
</defs>
</svg>
