<svg width="210" height="106" viewBox="0 0 210 106" fill="none" xmlns="http://www.w3.org/2000/svg">
<path fill-rule="evenodd" clip-rule="evenodd" d="M105.002 50.2892H81.2017C75.7183 50.2892 69.8217 47.488 72.5687 37.676C75.9607 25.5588 92.1946 17.3629 105.002 17.3629C117.81 17.3629 134.043 25.5584 137.435 37.676C140.184 47.4877 134.286 50.2892 128.802 50.2892H105.002ZM10.8854 51.3597C7.23633 51.3371 0 52.1279 0 56.4037H210C210 52.1279 202.764 51.3354 199.115 51.358H195.15C187.966 51.3048 180.964 50.9059 174.891 49.272C160.334 45.3534 158.639 37.9765 151.31 27.4671C142.77 15.2288 128.156 0 105.002 0C81.8477 0 67.2318 15.2255 58.6893 27.4704C51.3602 37.9765 49.666 45.3536 35.1085 49.2753C29.0377 50.9092 22.0356 51.3081 14.8497 51.3613L10.8854 51.3597Z" fill="url(#paint0_linear_213_26)"/>
<path d="M155.556 62.2385L139.844 62.2385C139.844 68.7396 131.54 91.2164 105.002 91.2164C78.4641 91.2164 70.1592 68.7396 70.1592 62.2385H54.4445C54.4445 72.597 66.4924 106 105 106C143.504 106 155.556 72.597 155.556 62.2385Z" fill="url(#paint1_linear_213_26)"/>
<defs>
<linearGradient id="paint0_linear_213_26" x1="210" y1="55.9421" x2="-1.07574e-06" y2="55.9421" gradientUnits="userSpaceOnUse">
<stop stop-color="#707070"/>
<stop offset="0.5" stop-color="white"/>
<stop offset="0.994792" stop-color="#707070"/>
</linearGradient>
<linearGradient id="paint1_linear_213_26" x1="105" y1="62.2385" x2="105" y2="106" gradientUnits="userSpaceOnUse">
<stop stop-color="white" stop-opacity="0"/>
<stop offset="0.583333" stop-color="#F3F3F3"/>
</linearGradient>
</defs>
</svg>
