<svg width="287" height="290" viewBox="0 0 287 290" fill="none" xmlns="http://www.w3.org/2000/svg">
<g filter="url(#filter0_d_223_121)">
<path d="M143.379 147.376C143.048 147.846 142.769 148.233 142.501 148.624C138.219 154.918 133.939 161.212 129.661 167.505C125.68 173.359 121.696 179.209 117.707 185.056C117.641 185.148 117.556 185.225 117.459 185.281C117.361 185.338 117.252 185.374 117.139 185.386C111.508 185.338 105.878 185.277 100.25 185.203C100.187 185.203 100.123 185.185 100 185.166C100.045 185.048 100.098 184.934 100.158 184.823C104.086 178.741 108.013 172.66 111.941 166.58C115.424 161.192 118.91 155.805 122.398 150.42C126.263 144.436 130.126 138.447 133.987 132.455C134.557 131.571 135.15 130.705 135.691 129.805C135.83 129.564 135.872 129.279 135.808 129.008C134.768 125.695 133.706 122.39 132.647 119.084C132.193 117.669 131.719 116.261 131.294 114.837C131.157 114.38 130.93 114.241 130.462 114.243C126.924 114.257 123.407 114.253 119.88 114.253C119.21 114.253 119.208 114.253 119.208 113.592C119.208 109.26 119.208 104.928 119.195 100.596C119.195 100.114 119.353 100.006 119.807 100.006C126.909 100.018 134.012 100.018 141.117 100.006C141.282 99.9845 141.449 100.024 141.587 100.117C141.724 100.21 141.824 100.35 141.866 100.511C145.612 109.922 149.358 119.33 153.103 128.734C157.473 139.702 161.844 150.67 166.214 161.641C167.571 165.046 168.938 168.449 170.28 171.862C170.44 172.278 170.607 172.357 171.027 172.228C174.75 171.078 178.481 169.96 182.202 168.808C182.67 168.663 182.841 168.76 182.987 169.224C184.256 173.209 185.551 177.186 186.837 181.167C186.88 181.304 186.914 181.443 186.966 181.634C186.699 181.732 186.45 181.842 186.194 181.913C177.731 184.592 169.273 187.272 160.82 189.953C160.416 190.08 160.295 189.943 160.16 189.604C157.578 183.069 154.99 176.536 152.396 170.006C149.858 163.611 147.32 157.217 144.779 150.823C144.398 149.862 144.024 148.898 143.643 147.938C143.583 147.773 143.499 147.63 143.379 147.376V147.376Z" fill="#FA7E14"/>
</g>
<defs>
<filter id="filter0_d_223_121" x="0" y="0" width="286.966" height="290" filterUnits="userSpaceOnUse" color-interpolation-filters="sRGB">
<feFlood flood-opacity="0" result="BackgroundImageFix"/>
<feColorMatrix in="SourceAlpha" type="matrix" values="0 0 0 0 0 0 0 0 0 0 0 0 0 0 0 0 0 0 127 0" result="hardAlpha"/>
<feOffset/>
<feGaussianBlur stdDeviation="50"/>
<feComposite in2="hardAlpha" operator="out"/>
<feColorMatrix type="matrix" values="0 0 0 0 1 0 0 0 0 0.78 0 0 0 0 0 0 0 0 1 0"/>
<feBlend mode="normal" in2="BackgroundImageFix" result="effect1_dropShadow_223_121"/>
<feBlend mode="normal" in="SourceGraphic" in2="effect1_dropShadow_223_121" result="shape"/>
</filter>
</defs>
</svg>
