<svg width="222" height="210" viewBox="0 0 222 210" fill="none" xmlns="http://www.w3.org/2000/svg">
<g filter="url(#filter0_d_223_160)">
<path d="M150.758 86.0229C150.553 85.8044 150.334 85.5858 150.116 85.3801C149.897 85.1744 149.691 84.9429 149.473 84.7372C149.254 84.5315 149.048 84.3001 148.83 84.0944C148.611 83.8887 148.406 83.6572 148.187 83.4515C147.968 83.2458 147.763 83.0144 147.544 82.8087C147.326 82.6029 147.12 82.3715 146.901 82.1658C146.683 81.9601 146.477 81.7287 146.258 81.5229C152.636 87.7904 156.289 96.3167 156.428 105.257C156.428 126.562 134.803 143.893 108.214 143.893C93.3255 143.893 80.0055 138.454 71.147 129.93L71.7898 130.573L72.4327 131.216L73.0755 131.859L73.7184 132.502L74.3613 133.144L75.0041 133.787L75.647 134.43C84.4927 143.314 98.1084 149.036 113.357 149.036C139.946 149.036 161.571 131.704 161.571 110.464C161.571 101.387 157.663 92.7858 150.758 86.0229Z" fill="black"/>
<path d="M153.214 105.257C153.214 124.813 133.067 140.666 108.214 140.666C83.361 140.666 63.2139 124.813 63.2139 105.257C63.2139 93.1329 70.9282 82.4229 82.7824 76.0715C94.6367 69.7201 102.017 63.2144 108.214 63.2144C114.411 63.2144 119.708 68.5244 133.645 76.0715C145.5 82.4229 153.214 93.1329 153.214 105.257Z" fill="#FBF0DF"/>
<path d="M153.214 105.257C153.208 102.745 152.862 100.245 152.186 97.8258C148.676 140.64 96.4498 142.697 75.917 129.892C85.1472 137.046 96.5374 140.845 108.214 140.666C133.028 140.666 153.214 124.787 153.214 105.257Z" fill="#F6DECE"/>
<path d="M90.8953 73.7186C96.6424 70.2729 104.28 63.8058 111.788 63.7929C110.633 63.4196 109.428 63.2245 108.214 63.2144C105.102 63.2144 101.785 64.8215 97.6067 67.2386C96.1539 68.0872 94.6496 69.0258 93.0553 70.0029C90.0596 71.8544 86.6267 73.9501 82.7696 76.0458C70.5296 82.6672 63.2139 93.5829 63.2139 105.257V106.787C71.0053 79.2601 85.161 77.1644 90.8953 73.7186V73.7186Z" fill="#FFFEFC"/>
<path fill-rule="evenodd" clip-rule="evenodd" d="M104.511 66.4672C104.529 69.503 103.892 72.507 102.642 75.274C101.393 78.0409 99.5615 80.5057 97.2725 82.5C96.9125 82.8214 97.1953 83.4386 97.6582 83.2586C101.991 81.5743 107.841 76.5343 105.372 66.3643C105.27 65.7857 104.511 65.94 104.511 66.4672V66.4672ZM107.43 66.4672C109.003 69.034 110.002 71.9107 110.36 74.8999C110.717 77.8892 110.424 80.9204 109.5 83.7857C109.345 84.2357 109.898 84.6214 110.207 84.2486C113.022 80.6486 115.478 73.5 108.124 65.7857C107.751 65.4514 107.172 65.9657 107.43 66.4157V66.4672ZM110.978 66.2486C113.442 67.9927 115.503 70.2449 117.022 72.8532C118.541 75.4615 119.484 78.3652 119.785 81.3686C119.772 81.4768 119.801 81.5859 119.867 81.6732C119.932 81.7605 120.028 81.8194 120.136 81.8376C120.243 81.8558 120.354 81.8319 120.444 81.7709C120.534 81.7099 120.598 81.6165 120.621 81.51C121.804 77.0229 121.135 69.3729 111.402 65.4C110.888 65.1943 110.554 65.8886 110.978 66.1972V66.2486ZM87.2439 79.62C90.1744 78.7445 92.8876 77.2617 95.207 75.268C97.5263 73.2742 99.3998 70.8144 100.705 68.0486C100.937 67.5857 101.67 67.7657 101.554 68.28C99.3296 78.5657 91.8853 80.7129 87.2568 80.43C86.7682 80.4429 86.7811 79.7614 87.2439 79.62V79.62Z" fill="#CCBEA7"/>
<path d="M108.214 143.893C81.6257 143.893 60 126.561 60 105.257C60 92.4 67.9457 80.4043 81.2529 73.2171C85.11 71.16 88.4143 69.09 91.3586 67.2771C92.9786 66.2743 94.5086 65.3357 95.9871 64.4614C100.5 61.7871 104.357 60 108.214 60C112.071 60 115.44 61.5429 119.657 64.0371C120.943 64.77 122.229 65.5671 123.604 66.4414C126.806 68.4214 130.419 70.6586 135.176 73.2171C148.483 80.4043 156.429 92.3871 156.429 105.257C156.429 126.561 134.803 143.893 108.214 143.893ZM108.214 63.2143C105.103 63.2143 101.786 64.8214 97.6071 67.2386C96.1543 68.0871 94.65 69.0257 93.0557 70.0029C90.06 71.8543 86.6271 73.95 82.77 76.0457C70.53 82.6671 63.2143 93.5829 63.2143 105.257C63.2143 124.787 83.4 140.679 108.214 140.679C133.029 140.679 153.214 124.787 153.214 105.257C153.214 93.5829 145.899 82.6671 133.646 76.0714C128.786 73.5 124.993 71.0829 121.92 69.18C120.519 68.3186 119.233 67.5214 118.063 66.8143C114.167 64.5 111.326 63.2143 108.214 63.2143Z" fill="black"/>
<path d="M117.278 114.643C116.701 117.009 115.386 119.129 113.524 120.699C112.126 122.054 110.317 122.904 108.381 123.116C106.388 122.938 104.515 122.085 103.071 120.699C101.228 119.122 99.9322 117.002 99.3685 114.643C99.3498 114.503 99.3634 114.36 99.4083 114.226C99.4532 114.093 99.5281 113.971 99.6274 113.87C99.7267 113.77 99.8477 113.693 99.9811 113.647C100.114 113.6 100.257 113.585 100.397 113.602H116.263C116.402 113.587 116.543 113.604 116.675 113.651C116.806 113.699 116.926 113.775 117.023 113.876C117.121 113.976 117.195 114.097 117.239 114.23C117.283 114.363 117.297 114.504 117.278 114.643V114.643Z" fill="#B71422"/>
<path d="M103.071 120.802C104.512 122.189 106.378 123.049 108.369 123.244C110.354 123.047 112.216 122.186 113.653 120.802C114.113 120.373 114.542 119.913 114.939 119.426C114.146 118.527 113.179 117.8 112.096 117.29C111.012 116.779 109.836 116.495 108.639 116.456C107.358 116.486 106.103 116.827 104.983 117.45C103.863 118.073 102.912 118.958 102.21 120.03C102.506 120.3 102.763 120.557 103.071 120.802Z" fill="#FF6164"/>
<path d="M103.277 119.786C103.914 118.962 104.73 118.293 105.663 117.83C106.597 117.367 107.622 117.121 108.664 117.111C110.59 117.168 112.424 117.943 113.807 119.284C114.103 118.963 114.386 118.629 114.656 118.294C113.02 116.737 110.858 115.851 108.6 115.813C107.393 115.823 106.203 116.101 105.116 116.625C104.029 117.15 103.072 117.909 102.313 118.847C102.617 119.177 102.939 119.491 103.277 119.786V119.786Z" fill="black"/>
<path d="M108.33 123.887C106.188 123.699 104.171 122.793 102.609 121.316C100.618 119.632 99.2175 117.358 98.61 114.823C98.5664 114.597 98.5738 114.365 98.6317 114.142C98.6895 113.92 98.7963 113.713 98.9443 113.537C99.1205 113.324 99.343 113.155 99.5948 113.041C99.8466 112.927 100.121 112.873 100.397 112.881H116.263C116.539 112.876 116.812 112.932 117.063 113.045C117.315 113.158 117.538 113.327 117.716 113.537C117.862 113.714 117.967 113.921 118.023 114.143C118.078 114.366 118.083 114.598 118.037 114.823C117.43 117.358 116.029 119.632 114.039 121.316C112.479 122.791 110.468 123.697 108.33 123.887V123.887ZM100.397 114.373C100.191 114.373 100.14 114.463 100.127 114.489C100.671 116.687 101.9 118.655 103.637 120.107C104.907 121.359 106.559 122.15 108.33 122.357C110.097 122.153 111.746 121.371 113.023 120.133C114.755 118.678 115.979 116.71 116.52 114.514C116.492 114.473 116.453 114.441 116.408 114.42C116.362 114.4 116.312 114.392 116.263 114.399L100.397 114.373Z" fill="black"/>
<path d="M127.783 115.44C131.937 115.44 135.304 113.46 135.304 111.017C135.304 108.575 131.937 106.594 127.783 106.594C123.629 106.594 120.261 108.575 120.261 111.017C120.261 113.46 123.629 115.44 127.783 115.44Z" fill="#FEBBD0"/>
<path d="M88.8642 115.44C93.0182 115.44 96.3856 113.46 96.3856 111.017C96.3856 108.575 93.0182 106.594 88.8642 106.594C84.7102 106.594 81.3428 108.575 81.3428 111.017C81.3428 113.46 84.7102 115.44 88.8642 115.44Z" fill="#FEBBD0"/>
<path fill-rule="evenodd" clip-rule="evenodd" d="M92.3998 109.243C93.8015 109.245 95.1724 108.832 96.3391 108.055C97.5058 107.278 98.4158 106.173 98.954 104.879C99.4921 103.584 99.6343 102.16 99.3624 100.784C99.0905 99.4094 98.4168 98.1459 97.4265 97.1538C96.4363 96.1618 95.174 95.4858 93.7995 95.2114C92.4249 94.937 90.9998 95.0766 89.7046 95.6124C88.4094 96.1482 87.3022 97.0562 86.5232 98.2215C85.7442 99.3867 85.3284 100.757 85.3284 102.159C85.3284 104.035 86.073 105.835 87.3988 107.163C88.7245 108.492 90.5232 109.239 92.3998 109.243V109.243ZM124.247 109.243C125.65 109.253 127.025 108.846 128.197 108.074C129.368 107.302 130.284 106.199 130.829 104.905C131.373 103.612 131.52 102.186 131.253 100.808C130.985 99.4307 130.315 98.1636 129.326 97.1677C128.337 96.1718 127.075 95.492 125.699 95.2145C124.324 94.9369 122.897 95.0742 121.599 95.6088C120.302 96.1435 119.192 97.0514 118.412 98.2175C117.631 99.3836 117.214 100.755 117.214 102.159C117.211 104.03 117.949 105.826 119.267 107.154C120.585 108.481 122.376 109.233 124.247 109.243V109.243Z" fill="black"/>
<path fill-rule="evenodd" clip-rule="evenodd" d="M90.2142 102.609C90.7412 102.611 91.257 102.457 91.6963 102.166C92.1357 101.875 92.4788 101.461 92.6822 100.975C92.8856 100.489 92.9402 99.953 92.8389 99.4359C92.7377 98.9188 92.4853 98.4433 92.1136 98.0698C91.7419 97.6963 91.2677 97.4416 90.7511 97.3379C90.2345 97.2341 89.6987 97.2861 89.2116 97.4871C88.7245 97.6882 88.3081 98.0293 88.0151 98.4672C87.7221 98.9052 87.5657 99.4202 87.5657 99.9472C87.5657 100.651 87.8443 101.326 88.3406 101.825C88.837 102.323 89.5106 102.605 90.2142 102.609ZM122.061 102.609C122.588 102.611 123.104 102.457 123.543 102.166C123.983 101.875 124.326 101.461 124.529 100.975C124.733 100.489 124.787 99.953 124.686 99.4359C124.585 98.9188 124.332 98.4433 123.961 98.0698C123.589 97.6963 123.115 97.4416 122.598 97.3379C122.082 97.2341 121.546 97.2861 121.059 97.4871C120.572 97.6882 120.155 98.0293 119.862 98.4672C119.569 98.9052 119.413 99.4202 119.413 99.9472C119.413 100.646 119.688 101.318 120.179 101.816C120.669 102.314 121.337 102.598 122.036 102.609H122.061Z" fill="white"/>
</g>
<defs>
<filter id="filter0_d_223_160" x="0" y="0" width="221.571" height="209.036" filterUnits="userSpaceOnUse" color-interpolation-filters="sRGB">
<feFlood flood-opacity="0" result="BackgroundImageFix"/>
<feColorMatrix in="SourceAlpha" type="matrix" values="0 0 0 0 0 0 0 0 0 0 0 0 0 0 0 0 0 0 127 0" result="hardAlpha"/>
<feOffset/>
<feGaussianBlur stdDeviation="30"/>
<feComposite in2="hardAlpha" operator="out"/>
<feColorMatrix type="matrix" values="0 0 0 0 0.996078 0 0 0 0 0.733333 0 0 0 0 0.815686 0 0 0 0.7 0"/>
<feBlend mode="normal" in2="BackgroundImageFix" result="effect1_dropShadow_223_160"/>
<feBlend mode="normal" in="SourceGraphic" in2="effect1_dropShadow_223_160" result="shape"/>
</filter>
</defs>
</svg>
