<svg width="210" height="210" viewBox="0 0 210 210" fill="none" xmlns="http://www.w3.org/2000/svg">
<g filter="url(#filter0_d_223_139)">
<path d="M101.456 60.0231C101.246 60.0453 100.571 60.1227 99.9624 60.1781C91.3075 61.0856 82.7854 64.749 75.835 70.5706C74.5511 71.6331 71.6293 74.5549 70.5668 75.8387C64.8116 82.7117 61.4471 90.4258 60.2075 99.5566C59.9308 101.582 59.9308 108.422 60.2075 110.447C61.4471 119.578 64.8116 127.292 70.5668 134.165C71.6293 135.449 74.5511 138.371 75.835 139.433C82.708 145.188 90.4221 148.553 99.5529 149.792C101.578 150.069 108.418 150.069 110.443 149.792C119.574 148.553 127.288 145.188 134.161 139.433C135.445 138.371 138.367 135.449 139.429 134.165C145.185 127.292 148.549 119.578 149.789 110.447C150.065 108.422 150.065 101.582 149.789 99.5566C148.549 90.4258 145.185 82.7117 139.429 75.8387C138.367 74.5549 135.445 71.6331 134.161 70.5706C127.31 64.8375 119.519 61.4287 110.51 60.2224C109.536 60.0895 108.119 60.0342 105.496 60.0121C103.493 59.9899 101.667 60.001 101.456 60.0231ZM102.01 64.8043C102.01 66.0992 102.098 68.9104 102.22 71.5777C102.287 72.8837 102.364 74.7541 102.397 75.7281C102.519 79.1812 102.884 88.2455 102.94 89.0535L102.995 89.8614L102.497 89.8061C102.22 89.7839 101.966 89.7175 101.921 89.6843C101.888 89.64 101.811 88.8764 101.766 87.9799C101.567 84.0398 100.914 68.7555 100.848 66.5198L100.781 64.0628L101.091 64.0185C101.257 63.9964 101.534 63.9632 101.711 63.9521L102.01 63.9411V64.8043ZM112.602 64.5387C112.613 64.5498 112.646 67.8922 112.679 71.9651C112.723 76.049 112.779 79.7124 112.812 80.1108C112.845 80.5203 112.834 80.8745 112.779 80.8966C112.734 80.9298 112.458 80.9298 112.181 80.8966L111.672 80.8524L111.594 77.6317C111.55 75.8498 111.495 73.8798 111.473 73.2379C111.384 71.2789 111.307 64.6273 111.373 64.4612C111.417 64.3395 111.539 64.3284 112.004 64.4059C112.325 64.4723 112.591 64.5276 112.602 64.5387ZM87.0022 68.2464C87.0686 68.346 87.5888 74.4442 88.2307 82.424C88.441 85.1355 88.6513 87.6147 88.6845 87.9246C88.7398 88.489 88.7287 88.5112 88.3746 88.7325C88.1754 88.8542 87.9761 88.9539 87.9319 88.9539C87.8987 88.9539 87.8323 88.6661 87.7991 88.3119C87.6441 86.8731 87.0465 79.9227 86.6259 74.898C86.3824 71.9429 86.1611 69.2978 86.1279 69.01C86.0725 68.5231 86.0836 68.4788 86.3713 68.3238C86.7255 68.1357 86.9247 68.1025 87.0022 68.2464ZM117.471 70.471C117.781 70.5816 117.814 70.637 117.881 71.2678C117.991 72.3746 117.958 77.6649 117.837 77.6649C117.516 77.6649 116.852 77.2886 116.796 77.0783C116.763 76.9455 116.73 75.3739 116.73 73.592C116.73 69.995 116.686 70.2053 117.471 70.471ZM97.0294 70.9911C97.0294 71.29 97.1069 72.939 97.1955 74.6766C97.284 76.4143 97.3836 78.6167 97.4279 79.5685C97.5054 81.4943 97.5275 81.4279 96.786 81.4722C96.4207 81.4832 96.4207 81.4832 96.3986 80.9298C96.3765 80.6199 96.3211 79.6571 96.2547 78.7717C96.1994 77.8862 96.0666 75.9716 95.978 74.5106C95.8895 73.0497 95.7788 71.5998 95.7456 71.29C95.6792 70.7366 95.6903 70.7144 95.9891 70.6038C96.1662 70.5374 96.4761 70.482 96.6753 70.482C97.0294 70.471 97.0294 70.471 97.0294 70.9911ZM127.731 72.5074L128.107 72.6623L128.185 74.1454C128.218 74.9533 128.24 76.702 128.218 78.0191L128.185 80.4318L127.72 80.1994L127.255 79.978L127.222 76.3036C127.2 74.2782 127.211 72.5627 127.233 72.4853C127.277 72.3192 127.277 72.3192 127.731 72.5074ZM107.522 73.9572C107.588 74.0237 107.743 79.3914 107.754 82.1141L107.765 83.7521L107.245 83.6746C106.946 83.6414 106.703 83.6082 106.691 83.5971C106.658 83.575 106.326 75.3739 106.326 74.577V73.758L106.891 73.8244C107.212 73.8687 107.488 73.924 107.522 73.9572ZM133.01 74.743C133.143 74.898 133.165 77.3218 133.198 90.6915C133.232 106.042 133.232 106.441 133.032 106.441C132.911 106.441 132.745 106.374 132.645 106.297C132.479 106.175 132.457 104.836 132.402 91.7208C132.357 83.7742 132.302 76.5581 132.269 75.6838L132.202 74.0901L132.523 74.3225C132.711 74.4553 132.922 74.6434 133.01 74.743ZM123.083 77.0119C123.138 77.0562 123.193 77.687 123.204 78.4064C123.26 80.8524 123.271 95.849 123.215 95.8932C123.193 95.9154 122.994 95.86 122.773 95.7715L122.374 95.6055V86.187V76.7795L122.684 76.8459C122.85 76.8902 123.027 76.9566 123.083 77.0119ZM92.536 77.6317C92.5692 77.9305 92.6245 78.6056 92.6577 79.159C92.6909 79.7013 92.7684 80.9409 92.8348 81.9038C92.9676 83.8517 92.9455 83.9734 92.3146 83.9734C91.9826 83.9734 91.9383 83.9402 91.8941 83.6082C91.7834 82.9552 91.396 77.51 91.4514 77.4214C91.5067 77.3439 92.0822 77.1447 92.3478 77.1226C92.4143 77.1115 92.5028 77.3439 92.536 77.6317ZM74.2302 80.4539C74.3519 81.6271 74.5954 84.0841 74.7725 85.9103C74.9606 87.7364 75.1156 89.2859 75.1156 89.3523C75.1156 89.4851 74.2634 89.9057 74.1748 89.8171C74.1195 89.7618 73.0127 79.967 73.0127 79.5243C73.0127 79.2586 73.8649 78.1408 73.9756 78.2625C74.0088 78.2847 74.1195 79.2697 74.2302 80.4539ZM117.626 81.616L117.947 81.8042L117.958 84.1948C117.969 85.5008 117.991 86.9617 117.991 87.4376C118.014 88.4337 117.892 88.5997 117.294 88.3894L116.951 88.2677V87.3158C116.951 86.7846 116.918 85.2462 116.874 83.8849L116.807 81.4279H117.062C117.195 81.4279 117.449 81.5164 117.626 81.616ZM79.0889 85.9103C79.2881 88.0352 79.609 91.6211 79.8193 93.8789L80.1956 97.974L79.764 98.4056L79.3434 98.8372L79.2659 97.9629C79.2217 97.4759 79.0003 95.2181 78.7679 92.9382C78.5355 90.6583 78.2034 87.3491 78.0374 85.5893L77.7275 82.4018L78.1592 82.0034C78.5465 81.6382 78.5908 81.6271 78.6683 81.8263C78.7126 81.937 78.9007 83.7742 79.0889 85.9103ZM70.7992 87.2494C71.0427 89.4298 71.6846 95.2292 72.238 100.132C72.7914 105.035 73.3116 109.761 73.4112 110.646C73.4997 111.532 73.6547 112.871 73.7432 113.635C73.8981 114.93 73.8981 115.018 73.7211 115.151C73.4554 115.35 73.3448 115.328 73.3448 115.096C73.3448 114.996 73.2452 114.155 73.1234 113.247C72.9242 111.731 72.5922 109.163 71.8506 103.397C71.6957 102.235 71.3969 99.9219 71.1866 98.2506C70.9652 96.5794 70.6443 94.0892 70.4672 92.7168C70.2901 91.3445 69.9913 88.9981 69.8031 87.4819C69.6039 85.9767 69.4822 84.6375 69.5154 84.4936C69.5928 84.1948 70.2458 83.1544 70.3122 83.2208C70.3344 83.254 70.5557 85.0581 70.7992 87.2494ZM67.4125 92.0196C67.5785 93.3477 67.8884 95.7715 68.0987 97.4206C68.309 99.0586 68.5746 101.106 68.6964 101.958L68.9067 103.508L68.6742 103.707C68.5414 103.818 68.4086 103.862 68.3643 103.818C68.3201 103.773 68.2315 103.331 68.1651 102.844C68.0987 102.357 67.6892 99.5124 67.2465 96.5352L66.4607 91.112L66.7153 90.3594C66.8481 89.9499 66.992 89.6179 67.0252 89.6179C67.0694 89.6179 67.2354 90.7025 67.4125 92.0196ZM128.174 90.5697C128.329 90.7247 128.351 91.4109 128.351 96.4909V102.235H128.041C127.366 102.235 127.377 102.401 127.333 96.1146L127.299 90.3926H127.654C127.842 90.3926 128.085 90.4701 128.174 90.5697ZM103.947 92.5508C106.448 92.9271 108.628 93.6244 110.786 94.7311C112.181 95.4505 112.845 95.9486 114.395 97.4316C116.697 99.6341 118.113 101.56 119.441 104.282C121.378 108.245 122.131 111.753 123.083 121.161C123.514 125.377 124.079 133.025 124.2 136.157C124.234 137.065 124.311 138.559 124.378 139.477C124.499 141.425 124.643 141.16 122.928 141.99C120.548 143.141 118.257 143.938 115.236 144.679C111.539 145.587 109.148 145.875 105.496 145.886L102.84 145.897L102.862 144.624C102.862 143.927 102.928 142.3 102.995 141.027C103.327 134.862 103.261 127.082 102.829 122.765C102.585 120.286 102.109 117.276 101.844 116.612C101.789 116.468 102.043 116.346 103.139 115.97C105.142 115.273 106.88 114.398 107.145 113.967C107.621 113.148 106.769 111.974 105.684 111.974C105.496 111.974 104.932 112.174 104.412 112.406C101.932 113.546 96.963 114.885 94.0965 115.184C92.1154 115.394 89.0386 115.273 86.9026 114.885C85.7405 114.675 83.6598 113.889 81.9222 112.993C79.9189 111.952 78.6904 110.569 78.3252 108.931C78.126 108.045 78.1813 106.275 78.4359 105.279C78.7126 104.183 79.4873 102.589 80.1956 101.659C83.3499 97.5091 89.8576 93.9121 96.5314 92.6504C98.6564 92.252 101.667 92.2077 103.947 92.5508ZM138.09 92.8939C138.489 93.0599 138.533 93.1042 138.533 93.4805C138.555 96.502 138.489 103.408 138.433 103.696C138.422 103.796 137.847 103.807 137.603 103.718C137.448 103.663 137.426 103.065 137.426 98.1842C137.426 94.6869 137.47 92.7168 137.537 92.7168C137.592 92.7168 137.847 92.7943 138.09 92.8939ZM142.927 98.97L143.325 99.1361L143.248 108.3C143.159 119.976 143.148 120.319 142.728 121.327C142.041 122.976 142.075 123.308 142.141 116.069C142.163 112.45 142.218 108.787 142.241 107.935C142.263 107.083 142.285 104.681 142.296 102.589C142.296 100.066 142.329 98.804 142.407 98.804C142.473 98.804 142.705 98.8815 142.927 98.97ZM76.3662 101.726C76.4326 102.622 76.4105 102.711 76.0895 103.419L75.7354 104.172L75.6026 103.065C75.3923 101.294 75.3923 101.217 75.8128 100.951C76.001 100.818 76.2002 100.73 76.2334 100.752C76.2666 100.774 76.333 101.217 76.3662 101.726ZM69.5264 108.4C69.6261 109.307 70.4008 115.328 70.7992 118.283C71.3969 122.854 71.4411 123.507 71.1755 123.23C71.1423 123.197 70.8878 121.659 70.6221 119.81C68.8956 107.879 68.9067 107.957 69.0505 107.868C69.3494 107.669 69.449 107.78 69.5264 108.4ZM77.4951 113.469C77.5615 113.745 77.8825 116.745 77.8825 117.11C77.8825 117.42 77.4841 117.707 77.307 117.53C77.2516 117.475 77.1078 116.534 76.9971 115.45C76.8753 114.354 76.7536 113.214 76.7204 112.915L76.654 112.362L77.0413 112.805C77.2627 113.048 77.4619 113.347 77.4951 113.469ZM86.4267 117.641C86.5484 117.752 86.6259 118.194 86.7255 119.39C86.8915 121.548 86.9137 121.382 86.4599 121.382C85.995 121.382 86.0061 121.415 85.8512 119.467C85.6962 117.486 85.6962 117.508 85.995 117.508C86.1389 117.508 86.3271 117.575 86.4267 117.641ZM95.1922 117.807C95.2144 117.918 95.2697 118.582 95.314 119.279C95.3472 119.976 95.4468 121.548 95.5353 122.765C95.8452 127.237 95.8563 127.801 95.6681 127.801C95.4578 127.801 95.4357 127.635 95.1922 124.481C95.1037 123.175 94.9377 121.116 94.827 119.91C94.7274 118.704 94.661 117.696 94.6942 117.674C94.8159 117.541 95.1369 117.641 95.1922 117.807ZM74.3851 119.932C74.4515 120.032 74.8721 123.573 75.3923 128.41C75.5472 129.871 75.7022 131.276 75.7354 131.542L75.7907 132.018L75.514 131.841C75.3037 131.697 75.2263 131.553 75.2263 131.299C75.2263 130.601 74.7504 126.008 74.3851 123.197C74.1748 121.603 74.0088 120.198 74.0088 120.065C74.0088 119.832 74.2744 119.744 74.3851 119.932ZM138.256 124.558L138.179 129.185L137.902 129.594C137.271 130.524 137.304 130.701 137.338 125.521L137.36 120.773L137.769 120.353C137.991 120.131 138.212 119.943 138.256 119.943C138.289 119.943 138.289 122.024 138.256 124.558ZM128.019 131.896C128.074 138.326 128.063 138.824 127.886 139.024C127.775 139.145 127.676 139.223 127.642 139.19C127.565 139.101 127.454 125.079 127.543 125.001C127.587 124.957 127.698 124.935 127.797 124.946C127.941 124.979 127.974 125.765 128.019 131.896ZM91.8719 127.491C91.9494 128.177 92.2261 131.465 92.3368 133.014C92.4032 134.054 92.4032 134.088 92.1597 134.165C92.0269 134.209 91.8719 134.198 91.8277 134.143C91.7502 134.065 91.5067 131.608 91.2079 127.823L91.1304 126.916H91.4735C91.7945 126.916 91.8166 126.938 91.8719 127.491ZM83.1728 131.365C83.2503 131.442 83.3056 131.719 83.3056 131.996C83.3056 132.284 83.4384 133.778 83.5823 135.327C84.0029 139.566 84.0361 140.142 83.8479 140.031C83.5602 139.865 83.3056 139.61 83.361 139.544C83.3831 139.5 83.3388 138.946 83.2503 138.315C83.1728 137.673 83.0732 136.633 83.0289 135.991C82.9847 135.349 82.885 134.176 82.7965 133.39C82.5862 131.453 82.5973 131.232 82.8408 131.232C82.9515 131.232 83.0953 131.287 83.1728 131.365ZM88.4078 138.813C88.441 139.057 88.5074 139.964 88.5517 140.828C88.6291 142.488 88.5959 142.61 88.1422 142.267C88.0093 142.167 87.9208 141.746 87.788 140.485C87.5556 138.205 87.5445 138.293 87.9761 138.338C88.2971 138.371 88.3414 138.415 88.4078 138.813Z" fill="#EDEDED"/>
<path d="M84.4567 97.8522C83.3056 98.3503 83.2171 99.9108 84.3017 100.464C85.0875 100.863 85.8844 100.674 86.2939 99.9883C87.0686 98.7266 85.8069 97.2657 84.4567 97.8522Z" fill="#EDEDED"/>
<path d="M91.9604 98.9148C90.898 99.5678 90.898 101.139 91.9604 101.792C93.0119 102.423 94.3732 101.593 94.3732 100.331C94.3732 99.114 92.9787 98.295 91.9604 98.9148Z" fill="#EDEDED"/>
</g>
<defs>
<filter id="filter0_d_223_139" x="0" y="0" width="209.996" height="210" filterUnits="userSpaceOnUse" color-interpolation-filters="sRGB">
<feFlood flood-opacity="0" result="BackgroundImageFix"/>
<feColorMatrix in="SourceAlpha" type="matrix" values="0 0 0 0 0 0 0 0 0 0 0 0 0 0 0 0 0 0 127 0" result="hardAlpha"/>
<feOffset/>
<feGaussianBlur stdDeviation="30"/>
<feComposite in2="hardAlpha" operator="out"/>
<feColorMatrix type="matrix" values="0 0 0 0 0.60375 0 0 0 0 0.63315 0 0 0 0 0.7875 0 0 0 1 0"/>
<feBlend mode="normal" in2="BackgroundImageFix" result="effect1_dropShadow_223_139"/>
<feBlend mode="normal" in="SourceGraphic" in2="effect1_dropShadow_223_139" result="shape"/>
</filter>
</defs>
</svg>
