<svg width="190" height="190" viewBox="0 0 190 190" fill="none" xmlns="http://www.w3.org/2000/svg">
<g filter="url(#filter0_d_223_164)">
<path d="M140 50H50V140H140V50Z" fill="#F7DF1E"/>
<path d="M110.457 120.313C112.27 123.273 114.629 125.449 118.8 125.449C122.304 125.449 124.543 123.697 124.543 121.277C124.543 118.377 122.243 117.35 118.386 115.663L116.272 114.756C110.169 112.156 106.114 108.899 106.114 102.013C106.114 95.67 110.947 90.8414 118.5 90.8414C123.877 90.8414 127.743 92.7129 130.529 97.6129L123.943 101.841C122.493 99.2414 120.929 98.2171 118.5 98.2171C116.023 98.2171 114.453 99.7886 114.453 101.841C114.453 104.379 116.024 105.406 119.653 106.977L121.767 107.883C128.953 110.964 133.01 114.106 133.01 121.169C133.01 128.783 127.029 132.954 118.996 132.954C111.142 132.954 106.067 129.211 103.584 124.306L110.457 120.313ZM80.5816 121.046C81.9101 123.403 83.1187 125.396 86.0244 125.396C88.803 125.396 90.5558 124.309 90.5558 120.081V91.3243H99.013V120.196C99.013 128.953 93.8787 132.939 86.3844 132.939C79.613 132.939 75.6916 129.434 73.6973 125.214L80.5816 121.046Z" fill="black"/>
</g>
<defs>
<filter id="filter0_d_223_164" x="0" y="0" width="190" height="190" filterUnits="userSpaceOnUse" color-interpolation-filters="sRGB">
<feFlood flood-opacity="0" result="BackgroundImageFix"/>
<feColorMatrix in="SourceAlpha" type="matrix" values="0 0 0 0 0 0 0 0 0 0 0 0 0 0 0 0 0 0 127 0" result="hardAlpha"/>
<feOffset/>
<feGaussianBlur stdDeviation="25"/>
<feComposite in2="hardAlpha" operator="out"/>
<feColorMatrix type="matrix" values="0 0 0 0 0.968627 0 0 0 0 0.87451 0 0 0 0 0.117647 0 0 0 0.5 0"/>
<feBlend mode="normal" in2="BackgroundImageFix" result="effect1_dropShadow_223_164"/>
<feBlend mode="normal" in="SourceGraphic" in2="effect1_dropShadow_223_164" result="shape"/>
</filter>
</defs>
</svg>
