<svg width="290" height="290" viewBox="0 0 290 290" fill="none" xmlns="http://www.w3.org/2000/svg">
<g filter="url(#filter0_d_223_124)">
<path d="M165.226 131.232L165.193 131.218C165.174 131.211 165.155 131.204 165.139 131.188C165.084 131.129 165.06 131.048 165.073 130.969L166.89 119.876L175.408 128.388L166.549 132.152C166.524 132.162 166.498 132.167 166.471 132.167H166.436C166.424 132.16 166.413 132.15 166.389 132.127C166.059 131.76 165.665 131.457 165.226 131.232ZM177.581 130.556L186.689 139.654C188.581 141.546 189.528 142.49 189.873 143.583C189.925 143.745 189.967 143.907 190 144.074L168.234 134.866C168.222 134.861 168.21 134.856 168.198 134.852C168.112 134.817 168.01 134.777 168.01 134.687C168.01 134.598 168.114 134.556 168.201 134.521L168.229 134.509L177.581 130.556ZM189.629 146.994C189.159 147.877 188.242 148.792 186.691 150.343L176.423 160.598L163.142 157.836L163.071 157.822C162.954 157.803 162.829 157.782 162.829 157.676C162.727 156.57 162.17 155.556 161.29 154.876C161.236 154.822 161.25 154.737 161.267 154.66C161.267 154.648 161.267 154.637 161.271 154.627L163.769 139.309L163.778 139.258C163.793 139.14 163.814 139.004 163.919 139.004C165.001 138.87 165.983 138.307 166.645 137.443C166.666 137.42 166.681 137.394 166.709 137.38C166.784 137.345 166.873 137.38 166.951 137.413L189.626 146.994H189.629ZM174.061 162.957L157.176 179.825L160.066 162.08L160.07 162.056C160.073 162.033 160.078 162.009 160.085 161.988C160.108 161.932 160.169 161.908 160.228 161.885L160.256 161.873C160.889 161.603 161.449 161.187 161.889 160.66C161.946 160.594 162.014 160.53 162.101 160.519C162.123 160.515 162.146 160.515 162.169 160.519L174.059 162.96L174.061 162.957ZM153.601 183.395L151.698 185.296L130.656 154.918C130.648 154.907 130.64 154.896 130.632 154.885C130.599 154.841 130.564 154.796 130.571 154.745C130.573 154.707 130.597 154.674 130.623 154.646L130.646 154.615C130.71 154.522 130.764 154.428 130.822 154.327L130.869 154.245L130.876 154.238C130.909 154.181 130.94 154.127 130.996 154.097C131.046 154.073 131.114 154.083 131.168 154.094L154.48 158.897C154.545 158.907 154.607 158.934 154.659 158.974C154.689 159.005 154.696 159.038 154.704 159.075C155.033 160.321 155.927 161.341 157.119 161.833C157.185 161.866 157.157 161.939 157.126 162.016C157.111 162.05 157.099 162.086 157.091 162.122C156.797 163.906 154.278 179.252 153.601 183.395ZM149.626 187.364C148.223 188.751 147.396 189.486 146.46 189.782C145.538 190.073 144.549 190.073 143.627 189.782C142.532 189.434 141.585 188.491 139.693 186.599L118.561 165.49L124.081 156.939C124.107 156.897 124.133 156.859 124.175 156.829C124.234 156.787 124.318 156.805 124.389 156.829C125.656 157.211 127.016 157.142 128.238 156.634C128.301 156.611 128.365 156.594 128.414 156.639C128.439 156.661 128.461 156.686 128.48 156.714L149.626 187.366V187.364ZM116.524 163.455L111.676 158.613L121.249 154.533C121.274 154.523 121.3 154.517 121.327 154.517C121.407 154.517 121.454 154.597 121.496 154.669C121.592 154.817 121.694 154.961 121.802 155.101L121.832 155.139C121.86 155.179 121.841 155.219 121.813 155.256L116.526 163.455H116.524ZM109.531 156.47L103.398 150.343C102.355 149.301 101.598 148.545 101.072 147.895L119.72 151.759C119.743 151.763 119.767 151.767 119.79 151.771C119.905 151.789 120.032 151.81 120.032 151.918C120.032 152.036 119.893 152.09 119.776 152.134L119.722 152.158L109.531 156.47ZM100 144.745C100.021 144.351 100.092 143.96 100.211 143.583C100.559 142.49 101.504 141.546 103.398 139.654L111.246 131.814C114.86 137.053 118.483 142.285 122.116 147.51C122.18 147.595 122.25 147.689 122.177 147.759C121.834 148.137 121.491 148.55 121.249 148.998C121.223 149.056 121.183 149.106 121.132 149.144C121.101 149.163 121.068 149.156 121.033 149.149H121.028L100 144.743V144.745ZM113.347 129.716L123.9 119.175C124.892 119.609 128.501 121.132 131.729 122.494C134.173 123.526 136.401 124.465 137.101 124.77C137.172 124.799 137.235 124.827 137.266 124.897C137.284 124.939 137.275 124.993 137.266 125.038C136.926 126.584 137.388 128.196 138.495 129.329C138.565 129.399 138.495 129.5 138.433 129.587L138.401 129.636L127.685 146.215C127.657 146.262 127.631 146.302 127.584 146.332C127.528 146.367 127.448 146.351 127.382 146.334C126.966 146.225 126.537 146.167 126.106 146.161C125.721 146.161 125.303 146.231 124.88 146.309H124.877C124.83 146.316 124.788 146.325 124.751 146.297C124.709 146.263 124.673 146.223 124.645 146.177L113.347 129.716ZM126.031 117.046L139.693 103.399C141.585 101.509 142.532 100.563 143.627 100.218C144.549 99.9272 145.538 99.9272 146.46 100.218C147.555 100.563 148.502 101.509 150.394 103.399L153.355 106.356L143.638 121.388C143.614 121.432 143.581 121.47 143.542 121.501C143.483 121.541 143.401 121.524 143.33 121.501C141.775 121.029 140.087 121.354 138.819 122.369C138.755 122.435 138.661 122.397 138.581 122.362C137.313 121.811 127.443 117.644 126.031 117.046ZM155.418 108.417L164.389 117.379L162.228 130.754V130.789C162.226 130.819 162.219 130.849 162.209 130.878C162.185 130.925 162.138 130.934 162.091 130.948C161.629 131.088 161.194 131.305 160.804 131.589C160.787 131.601 160.771 131.614 160.757 131.629C160.731 131.657 160.705 131.683 160.663 131.688C160.628 131.689 160.594 131.683 160.562 131.671L146.89 125.869L146.865 125.857C146.778 125.822 146.674 125.78 146.674 125.691C146.594 124.93 146.345 124.196 145.946 123.543C145.88 123.435 145.807 123.322 145.864 123.212L155.418 108.417ZM146.178 128.618L158.994 134.04C159.065 134.072 159.142 134.103 159.173 134.176C159.185 134.22 159.185 134.266 159.173 134.31C159.135 134.497 159.102 134.711 159.102 134.927V135.286C159.102 135.375 159.011 135.413 158.926 135.448L158.9 135.457C156.87 136.323 130.397 147.6 130.357 147.6C130.317 147.6 130.275 147.6 130.235 147.56C130.164 147.489 130.235 147.391 130.298 147.301C130.31 147.286 130.321 147.27 130.331 147.255L140.863 130.965L140.882 130.937C140.943 130.838 141.014 130.728 141.126 130.728L141.232 130.744C141.472 130.777 141.683 130.807 141.897 130.807C143.495 130.807 144.975 130.031 145.868 128.702C145.89 128.667 145.917 128.635 145.948 128.608C146.012 128.561 146.106 128.585 146.178 128.618ZM131.502 150.177L160.357 137.884C160.357 137.884 160.399 137.884 160.439 137.924C160.597 138.082 160.731 138.187 160.86 138.286L160.923 138.326C160.982 138.359 161.041 138.396 161.046 138.457C161.046 138.481 161.046 138.495 161.041 138.516L158.569 153.684L158.56 153.745C158.543 153.862 158.527 153.996 158.416 153.996C157.078 154.086 155.871 154.83 155.19 155.984L155.178 156.003C155.145 156.057 155.115 156.108 155.061 156.136C155.011 156.16 154.948 156.15 154.896 156.139L131.885 151.397C131.861 151.393 131.527 150.179 131.502 150.177Z" fill="url(#paint0_radial_223_124)"/>
</g>
<defs>
<filter id="filter0_d_223_124" x="0" y="0" width="290" height="290" filterUnits="userSpaceOnUse" color-interpolation-filters="sRGB">
<feFlood flood-opacity="0" result="BackgroundImageFix"/>
<feColorMatrix in="SourceAlpha" type="matrix" values="0 0 0 0 0 0 0 0 0 0 0 0 0 0 0 0 0 0 127 0" result="hardAlpha"/>
<feOffset/>
<feGaussianBlur stdDeviation="50"/>
<feComposite in2="hardAlpha" operator="out"/>
<feColorMatrix type="matrix" values="0 0 0 0 0 0 0 0 0 0.785714 0 0 0 0 1 0 0 0 1 0"/>
<feBlend mode="normal" in2="BackgroundImageFix" result="effect1_dropShadow_223_124"/>
<feBlend mode="normal" in="SourceGraphic" in2="effect1_dropShadow_223_124" result="shape"/>
</filter>
<radialGradient id="paint0_radial_223_124" cx="0" cy="0" r="1" gradientUnits="userSpaceOnUse" gradientTransform="translate(145 55) scale(89.9999)">
<stop stop-color="#20C6B7"/>
<stop offset="1" stop-color="#4D9ABF"/>
</radialGradient>
</defs>
</svg>
