<svg width="202" height="210" viewBox="0 0 202 210" fill="none" xmlns="http://www.w3.org/2000/svg">
<g filter="url(#filter0_d_223_131)">
<path d="M97.1507 60.9602C99.3822 59.6828 102.289 59.6771 104.519 60.9602C115.736 67.2985 126.957 73.6269 138.172 79.969C140.281 81.1573 141.692 83.5049 141.671 85.9355V124.069C141.687 126.601 140.136 129.004 137.911 130.166C126.73 136.469 115.556 142.78 104.377 149.083C102.099 150.386 99.1345 150.286 96.9279 148.876C93.576 146.933 90.2184 145 86.8662 143.059C86.1812 142.65 85.409 142.325 84.9253 141.661C85.3529 141.085 86.1174 141.013 86.7386 140.761C88.1378 140.316 89.4228 139.602 90.7082 138.909C91.0332 138.687 91.43 138.772 91.7416 138.971C94.6078 140.615 97.4488 142.306 100.325 143.933C100.938 144.288 101.559 143.817 102.084 143.525C113.055 137.324 124.04 131.147 135.009 124.944C135.416 124.749 135.641 124.317 135.608 123.872C135.615 111.292 135.609 98.7106 135.611 86.1311C135.658 85.6259 135.366 85.1614 134.909 84.9547C123.767 78.6802 112.631 72.396 101.492 66.1199C101.299 65.9872 101.07 65.916 100.836 65.9157C100.602 65.9153 100.373 65.9858 100.179 66.118C89.0398 72.396 77.9059 78.6859 66.7662 84.9601C66.311 85.1672 66.0056 85.624 66.0597 86.1311C66.0617 98.7106 66.0597 111.292 66.0597 123.874C66.0404 124.091 66.0881 124.309 66.1964 124.498C66.3048 124.688 66.4685 124.839 66.6655 124.933C69.6382 126.618 72.6147 128.292 75.5893 129.972C77.2651 130.874 79.3226 131.41 81.1689 130.719C82.7982 130.135 83.9403 128.472 83.9092 126.742C83.9246 114.236 83.9015 101.728 83.9208 89.2236C83.8801 88.6685 84.4067 88.2098 84.9465 88.262C86.3748 88.2524 87.805 88.2428 89.2334 88.2659C89.8296 88.2524 90.2398 88.8502 90.1661 89.4095C90.1604 101.995 90.1815 114.58 90.1565 127.166C90.1604 130.52 88.7824 134.169 85.6799 135.811C81.8578 137.791 77.1337 137.371 73.3577 135.472C70.0889 133.841 66.9694 131.915 63.7586 130.167C61.5273 129.012 59.9846 126.599 60.0003 124.07V85.9355C59.9769 83.4546 61.444 81.0643 63.6192 79.8934C74.7976 73.5849 85.9741 67.2716 97.1507 60.9602Z" fill="#8CC84B"/>
<path d="M106.903 87.3756C111.779 87.0618 116.998 87.1897 121.385 89.5915C124.782 91.4321 126.665 95.2949 126.725 99.0686C126.63 99.5776 126.098 99.8584 125.612 99.8234C124.198 99.8215 122.783 99.8427 121.368 99.8138C120.768 99.8369 120.419 99.2836 120.344 98.7531C119.938 96.9476 118.953 95.1593 117.253 94.2884C114.645 92.9822 111.62 93.0479 108.775 93.0751C106.698 93.1854 104.465 93.3652 102.705 94.5865C101.355 95.5115 100.944 97.379 101.427 98.883C101.881 99.9629 103.128 100.311 104.148 100.632C110.023 102.169 116.249 102.016 122.012 104.038C124.399 104.863 126.733 106.466 127.549 108.964C128.618 112.312 128.149 116.314 125.767 119.003C123.835 121.215 121.022 122.418 118.215 123.072C114.482 123.905 110.608 123.926 106.816 123.556C103.251 123.15 99.5414 122.213 96.7893 119.784C94.4359 117.741 93.2864 114.557 93.4006 111.484C93.4278 110.965 93.9445 110.603 94.4417 110.646C95.8661 110.634 97.2906 110.63 98.7151 110.648C99.284 110.607 99.7059 111.099 99.735 111.635C99.9979 113.355 100.644 115.161 102.145 116.181C105.04 118.049 108.672 117.921 111.987 117.973C114.734 117.851 117.817 117.814 120.058 115.999C121.24 114.964 121.591 113.232 121.271 111.741C120.925 110.483 119.609 109.897 118.478 109.514C112.678 107.679 106.383 108.345 100.639 106.27C98.3067 105.446 96.0517 103.888 95.1558 101.492C93.9057 98.1012 94.4785 93.9072 97.1105 91.3099C99.6767 88.7264 103.381 87.7314 106.903 87.3753V87.3756Z" fill="#8CC84B"/>
</g>
<defs>
<filter id="filter0_d_223_131" x="0" y="0" width="201.671" height="210" filterUnits="userSpaceOnUse" color-interpolation-filters="sRGB">
<feFlood flood-opacity="0" result="BackgroundImageFix"/>
<feColorMatrix in="SourceAlpha" type="matrix" values="0 0 0 0 0 0 0 0 0 0 0 0 0 0 0 0 0 0 127 0" result="hardAlpha"/>
<feOffset/>
<feGaussianBlur stdDeviation="30"/>
<feComposite in2="hardAlpha" operator="out"/>
<feColorMatrix type="matrix" values="0 0 0 0 0.631373 0 0 0 0 0.882353 0 0 0 0 0.298039 0 0 0 1 0"/>
<feBlend mode="normal" in2="BackgroundImageFix" result="effect1_dropShadow_223_131"/>
<feBlend mode="normal" in="SourceGraphic" in2="effect1_dropShadow_223_131" result="shape"/>
</filter>
</defs>
</svg>
